<?xml version="1.0" encoding="UTF-8"?> <!-- Generator: Adobe Illustrator 25.2.1, SVG Export Plug-In . SVG Version: 6.00 Build 0) --> <svg xmlns="http://www.w3.org/2000/svg" xmlns:xlink="http://www.w3.org/1999/xlink" id="Layer_1" x="0px" y="0px" viewBox="0 0 100 100" style="enable-background:new 0 0 100 100;" xml:space="preserve"> <style type="text/css"> .st0{fill:#E2E2E2;} .st1{display:none;} .st2{display:inline;fill:none;stroke:#231F20;stroke-width:2;stroke-miterlimit:10;} .st3{display:inline;} .st4{fill:none;stroke:#231F20;stroke-width:2;stroke-miterlimit:10;} .st5{display:inline;fill:none;stroke:#231F20;stroke-width:2;stroke-miterlimit:10.0001;} .st6{fill:none;stroke:#000000;stroke-width:2;stroke-miterlimit:10;} .st7{display:inline;fill:none;stroke:#000000;stroke-width:2;stroke-miterlimit:10;} .st8{fill:#1A2E35;} .st9{fill:#FFBF9D;} .st10{fill:#FF9A6C;} .st11{fill:#E50043;} .st12{fill:#375A64;} .st13{opacity:0.2;} .st14{fill:#FFFFFF;} .st15{fill:#E1E1E1;} .st16{fill:#FAFAFA;} .st17{opacity:0.4;} .st18{opacity:0.3;} .st19{opacity:0.5;} .st20{fill:#F5F5F5;} .st21{fill:#1C1C1B;} .st22{fill:none;stroke:#B0B1B2;stroke-width:0.1001;stroke-miterlimit:22.9256;} .st23{fill-rule:evenodd;clip-rule:evenodd;fill:#FFFFFF;} .st24{fill:none;stroke:#B0B1B2;stroke-width:0.2235;stroke-miterlimit:22.9256;} .st25{fill:none;stroke:#B0B1B2;stroke-width:0.2237;stroke-miterlimit:22.9256;} .st26{fill:none;stroke:#B0B1B2;stroke-width:6.078576e-02;stroke-miterlimit:22.9256;stroke-dasharray:0.3039,0.1829;} .st27{fill:none;stroke:#B0B1B2;stroke-width:0.2314;stroke-miterlimit:10;} .st28{fill:none;stroke:#B0B1B2;stroke-width:0.1621;stroke-miterlimit:22.9256;stroke-dasharray:0.8098,0.4841;} .st29{fill:none;stroke:#B0B1B2;stroke-width:0.2422;stroke-miterlimit:10;} .st30{fill:none;stroke:#B0B1B2;stroke-width:0.1256;stroke-miterlimit:22.9256;stroke-dasharray:0.6276,0.3752;} .st31{fill:none;stroke:#B0B1B2;stroke-width:0.131;stroke-miterlimit:22.9256;stroke-dasharray:0.6545,0.3913;} .st32{clip-path:url(#SVGID_2_);} </style> <circle class="st0" cx="50" cy="50.2" r="50"></circle> <g class="st1"> <path class="st2" d="M63.9,71.7c0-6.6-4.6-12.1-10.8-13.4v-3.4c2.3-1.1,3.9-3.4,3.9-6.2c0-0.6,0-2.8,0-3.4c0-3.8-3.1-6.8-6.8-6.8 c-3.8,0-6.8,3.1-6.8,6.8c0,0.6,0,2.8,0,3.4c0,2.7,1.6,5,3.8,6.1v3.5c-6.1,1.4-10.7,6.8-10.7,13.4C36.5,71.7,63.9,71.7,63.9,71.7z"></path> <path class="st2" d="M57.1,43.3c1-0.6,2.1-1.1,3.2-1.3v-2.6c-1.7-0.8-2.9-2.6-2.9-4.6c0-0.4,0-2.1,0-2.6c0-2.9,2.3-5.2,5.2-5.2 s5.2,2.3,5.2,5.2c0,0.4,0,2.1,0,2.6c0,2.1-1.2,3.8-3,4.7V42c4.7,1,8.2,5.1,8.2,10.1H56.2"></path> <path class="st2" d="M43.7,43.3c-1-0.6-2.1-1.1-3.2-1.3v-2.6c1.7-0.8,3-2.6,3-4.7c0-0.4,0-2.1,0-2.6c0-2.9-2.3-5.2-5.2-5.2 c-2.8,0-5.2,2.3-5.2,5.2c0,0.4,0,2.1,0,2.6c0,2,1.2,3.8,2.9,4.6V42c-4.6,1-8.1,5.2-8.1,10.1h15.8"></path> </g> <g class="st1"> <g class="st3"> <polygon class="st4" points="72.8,29.4 43.7,29.4 43.7,52.5 50.4,52.5 50.4,59.1 57.1,52.5 72.8,52.5 "></polygon> <polyline class="st4" points="43.7,42.1 29.8,42.1 29.8,65.2 37.1,65.2 43.8,72.3 43.8,65.2 60.3,65.2 60.3,52.8 "></polyline> </g> <ellipse class="st5" cx="51" cy="35.5" rx="1.7" ry="1.7"></ellipse> <ellipse class="st5" cx="58.8" cy="35.5" rx="1.7" ry="1.7"></ellipse> </g> <g class="st1"> <polyline class="st2" points="25.8,32.3 31.3,32.3 40.5,63.1 64.6,63.1 68.5,37.6 32.9,37.6 "></polyline> <ellipse class="st2" cx="43.6" cy="69.9" rx="3.1" ry="3.1"></ellipse> <circle class="st2" cx="61.1" cy="70.1" r="3.1"></circle> <line class="st2" x1="38.9" y1="57.8" x2="41.7" y2="67.2"></line> <line class="st2" x1="47" y1="69.3" x2="58" y2="69.3"></line> </g> <g class="st1"> <g class="st3"> <g> <rect x="23.2" y="44.2" class="st6" width="45.2" height="24.7"></rect> </g> <circle class="st6" cx="46" cy="56.5" r="7.7"></circle> <line class="st6" x1="27.9" y1="48.9" x2="27.9" y2="64.2"></line> <line class="st6" x1="63.8" y1="48.9" x2="63.8" y2="64.2"></line> </g> <g class="st3"> <g> <polyline class="st6" points="28.7,44.2 28.7,38.2 73.9,38.2 73.9,62.9 68.4,62.9 "></polyline> </g> </g> <g class="st3"> <g> <polyline class="st6" points="33.8,38.7 33.8,32.7 79,32.7 79,57.4 73.5,57.4 "></polyline> </g> </g> </g> <g class="st1"> <g class="st3"> <circle class="st6" cx="50.8" cy="49.4" r="20.2"></circle> <line class="st6" x1="50.4" y1="34.2" x2="50.4" y2="53.3"></line> <line class="st6" x1="50.4" y1="53.3" x2="57" y2="46.7"></line> </g> <circle class="st7" cx="50.8" cy="49.4" r="25.2"></circle> </g> <circle class="st0" cx="-54.8" cy="50.2" r="50"></circle> <g> <g> <path class="st8" d="M-65.5,88.2c-0.3-0.1-3.2,13.2-2.8,18.3c0.4,5.2,2.8,23.1,2.8,23.1h29c0,0,3.6-17.4,3-22.7 s-4.1-19.1-4.1-19.1L-65.5,88.2z"></path> <g> <g> <g> <g> <g> <g> <path class="st9" d="M-69.2,63.1l-4.1-18.6l-0.2-3.1c0,0-0.9-6.9-1-7.6c0-0.8-0.4-1-0.7-0.9c-0.4,0-0.8,0.6-0.8,1.3 c0,0.2,0.1,3.9,0.1,3.9s-0.2-0.3-0.7-1c-0.5-0.7-1.8-1.1-3.1-1c-1.3,0.1-1.7,0.2-1.7,0.7c0,0.2,0.1,0.4,0.3,0.5 c0.2,0.2,0.6,0.3,0.9,0.3c2.1-0.1,2.7,1,2.7,1l0,0.4c0,0-1.3-0.9-2.3-0.5c-0.2,0.1-0.3,0.2-0.4,0.3c-0.6,0-1.1,0.3-1.4,0.8 c-0.3,0.5-0.3,1.2,0,1.7c0.1,0.2,0.4,0.5,0.7,0.4c0.1,0,0.3-0.1,0.4-0.2c0.1-0.1,0.1-0.1,0.2-0.1l0.2,1.1 c0,0,0.7,2.5,0.9,3.6l1.1,18.5c0.2,2.6,2.4,4.5,4.9,4.3h0C-70.5,68.5-68.6,65.9-69.2,63.1z"></path> </g> </g> </g> </g> <g> <g> <g> <g> <g> <path class="st9" d="M-73.9,44.3c-0.4,0.1-0.8-0.2-1-0.5c-0.2-0.3-0.3-0.7-0.5-1.1c-0.6-1.1-1.9-1.5-2.4-2.6 c-0.1-0.2-0.1-0.4,0-0.5c0.1-0.1,0.3,0,0.4,0.1c1.2,0.6,2.3,1.2,3.5,1.9"></path> </g> </g> </g> </g> <g> <g> <g> <g> <g> <path class="st10" d="M-73.9,41.5c0,0-0.1-0.1-0.4-0.2c-0.2-0.1-0.6-0.3-1-0.6c-0.4-0.2-1-0.5-1.5-0.8 c-0.1-0.1-0.3-0.2-0.4-0.2c-0.1-0.1-0.3-0.2-0.6-0.2c-0.1,0-0.2,0.2-0.2,0.3c0,0.1,0,0.2,0.1,0.3c0.1,0.2,0.2,0.3,0.3,0.5 c0.5,0.6,1.1,1,1.6,1.4c0.2,0.2,0.4,0.5,0.6,0.7c0.1,0.2,0.2,0.5,0.3,0.7c0.2,0.5,0.5,0.8,0.8,0.9c0.3,0.1,0.4,0,0.4,0 c0,0-0.2,0-0.4-0.1c-0.2-0.1-0.5-0.4-0.7-0.8c-0.1-0.2-0.2-0.5-0.3-0.8c-0.1-0.3-0.3-0.5-0.6-0.8 c-0.5-0.5-1.1-0.9-1.5-1.4c-0.1-0.1-0.2-0.3-0.3-0.4c-0.1-0.1-0.1-0.3,0-0.3c0.1,0,0.3,0.1,0.4,0.1 c0.1,0.1,0.3,0.2,0.4,0.2c0.6,0.3,1.1,0.6,1.5,0.8c0.4,0.2,0.8,0.4,1,0.5C-74,41.5-73.9,41.5-73.9,41.5z"></path> </g> </g> </g> </g> </g> </g> <g> <g> <g> <g> <g> <path class="st10" d="M-77.5,39c0,0,0-0.3-0.2-0.7c-0.1-0.2-0.4-0.4-0.6-0.5c-0.3-0.1-0.6-0.1-1-0.1c-0.4,0-0.7,0-1-0.1 c-0.3-0.1-0.6-0.2-0.8-0.4c-0.2-0.2-0.2-0.4-0.2-0.5c0-0.1,0.1-0.2,0.1-0.2c0,0,0,0.1,0,0.2c0,0.1,0.1,0.3,0.2,0.5 c0.2,0.1,0.4,0.3,0.7,0.3c0.3,0.1,0.6,0.1,1,0.1c0.4,0,0.7,0,1,0.2c0.3,0.1,0.6,0.3,0.7,0.5c0.1,0.2,0.2,0.4,0.2,0.5 C-77.5,38.9-77.5,39-77.5,39z"></path> </g> </g> </g> </g> </g> <g> <g> <g> <g> <g> <path class="st10" d="M-75.9,33.9c0,0,0,0.3,0,0.7c0,0.5,0,1.1,0,1.8c0,0.7,0,1.3,0,1.8c0,0.4,0,0.7,0,0.7 c0,0-0.1-0.3-0.1-0.7c0-0.4-0.1-1.1-0.1-1.8c0-0.7,0-1.3,0-1.8C-76,34.2-76,33.9-75.9,33.9z"></path> </g> </g> </g> </g> </g> <g> <g> <g> <g> <g> <path class="st10" d="M-78.4,39.8c0,0-0.1,0-0.2-0.1c-0.1,0-0.3-0.1-0.6,0c-0.1,0.1-0.2,0.2-0.2,0.3c0,0.1,0,0.3,0,0.5 c0,0.2,0,0.4-0.1,0.6c-0.1,0.2-0.3,0.3-0.6,0.3c-0.2,0-0.4-0.1-0.6-0.2c-0.1-0.1-0.2-0.3-0.3-0.5c-0.1-0.4,0-0.7,0-0.9 c0-0.3,0.1-0.5,0.2-0.6c0.1-0.1,0.1-0.2,0.1-0.2c0,0,0,0.1-0.1,0.2c-0.1,0.1-0.1,0.3-0.1,0.6c0,0.3,0,0.6,0,0.9 c0.1,0.3,0.4,0.6,0.7,0.6c0.2,0,0.4-0.1,0.4-0.2c0.1-0.1,0.1-0.3,0.1-0.5c0-0.2-0.1-0.3,0-0.5c0-0.2,0.1-0.3,0.3-0.4 c0.3-0.1,0.5,0,0.6,0.1C-78.4,39.8-78.4,39.8-78.4,39.8z"></path> </g> </g> </g> </g> </g> <g> <g> <g> <g> <g> <path class="st10" d="M-80.4,41c0,0,0,0.1,0,0.2c0,0.1-0.2,0.3-0.4,0.4c-0.2,0.1-0.6,0-0.8-0.2c-0.2-0.2-0.4-0.6-0.4-1 c0-0.4,0.1-0.7,0.3-1c0.2-0.3,0.4-0.4,0.6-0.5c0.2-0.1,0.4-0.1,0.5-0.1c0.1,0,0.2,0,0.2,0c0,0-0.3,0-0.7,0.2 c-0.2,0.1-0.4,0.3-0.6,0.5c-0.2,0.2-0.3,0.6-0.3,0.9c0,0.3,0.1,0.7,0.3,0.9c0.2,0.2,0.5,0.3,0.7,0.2c0.2,0,0.3-0.2,0.4-0.3 C-80.4,41.1-80.4,41-80.4,41z"></path> </g> </g> </g> </g> </g> <g> <g> <g> <g> <g> <path class="st10" d="M-77.9,43.4c0,0,0.1,0,0.3,0c0.2,0,0.5,0.2,0.8,0.5l-0.1,0c0-0.2,0-0.3,0.1-0.5 c0.2-0.9,0.7-1.6,0.7-1.5c0,0-0.4,0.7-0.6,1.6c0,0.2-0.1,0.3-0.1,0.5l0,0.2l-0.1-0.1c-0.2-0.3-0.5-0.4-0.7-0.5 C-77.8,43.5-77.9,43.5-77.9,43.4z"></path> </g> </g> </g> </g> </g> <g> <g> <g> <g> <g> <path class="st10" d="M-78,37.2c0,0-0.1,0.3-0.4,0.4c-0.3,0.1-0.6,0.1-0.6,0c0,0,0.3,0,0.5-0.2 C-78.2,37.4-78.1,37.2-78,37.2z"></path> </g> </g> </g> </g> </g> </g> </g> <path class="st11" d="M-36,47.3c1.5,0,5.2,4.3,5.8,10.9c0.3,3,1.8,15.3,2.5,21.2c0.3,2.1-0.7,4.2-2.4,5.5 c-3.9,2.8-11.8,7.3-22.2,7.2l-6.3-5.3l20.5-8.7l0-0.5l0.9-1l-2.6-15.7C-39.7,60.9-42.1,47.3-36,47.3z"></path> <g> <g> <path class="st8" d="M-41.3,19.7c0.1,2.1,2.9,3.4,2.9,5.5c0,0.9-0.6,1.7-0.7,2.6c-0.1,1.2,0.5,2.4,0.8,3.6 c0.5,2.5-0.9,5.1-3.1,6.4c-2.1,1.4-4.8,1.6-7.3,1.3"></path> </g> <g> <g> <path class="st8" d="M-58.4,19.1c0.1,1.1-0.7,2.2-1.4,3c-0.8,0.9-1.6,1.7-1.8,2.9c-0.3,2,1.7,3.9,1.3,5.9 c-0.2,1.1-1.1,1.9-1.2,3c-0.2,1,0.4,2.1,1.1,2.9c0.7,0.8,1.5,0.7,2.1,1.5c0.6,0.9,1.7,1.8,2.7,2.4c2.2,1.2,4.8-0.5,5.9-0.9"></path> </g> <g> <path class="st8" d="M-40.9,20.9c0-1-0.9-1.8-1.9-2.2c-1-0.4-2-0.5-2.9-1.1c-0.8-0.5-1.3-1.3-1.9-2c-1.6-1.6-4-2.3-6.2-1.7 c-2.2,0.6-4,2.4-4.5,4.6c-0.4,1.5-0.1,3.2,1,4.2c1.3,1.1,3.3,0.9,5.1,0.5c1.7-0.4,3.7-0.7,5.1,0.3c0.9,0.6,1.4,1.6,1.9,2.5 C-44.6,27-44,28-43,28.3c1,0.3,2.4-0.3,2.4-1.3"></path> </g> <g> <g> <g> <g> <g> <g> <g> <g> <g> <g> <g> <g> <g> <g> <path class="st9" d="M-54.7,45c0-2.4,0-4.7,0-4.7c0,0-3.8-0.6-4.5-5.6c-0.4-2.4-0.3-6.5,0-9.7 c0.2-3,2.2-6.6,5.1-6.3l9.2,2.3c0.9,0.1,1.6,0.9,1.5,1.8l0,0l-0.8,22.3c-0.1,2.8-2.5,5.1-5.3,5l0,0 C-52.4,50.1-54.6,47.8-54.7,45z"></path> </g> </g> </g> </g> </g> </g> </g> <g> <g> <g> <g> <g> <g> <g> <g> <path class="st8" d="M-57.7,27.8c0,0.3,0.3,0.6,0.6,0.6c0.3,0,0.6-0.2,0.7-0.6c0-0.3-0.3-0.6-0.6-0.6 C-57.4,27.2-57.7,27.5-57.7,27.8z"></path> </g> </g> </g> </g> </g> </g> </g> <g> <g> <g> <g> <g> <g> <g> <g> <path class="st8" d="M-58.4,27.1c0.1,0.1,0.6-0.3,1.2-0.3c0.7,0,1.2,0.3,1.3,0.3c0,0,0-0.2-0.3-0.3 c-0.2-0.2-0.6-0.3-1-0.3c-0.4,0-0.8,0.2-1,0.3C-58.4,26.9-58.4,27.1-58.4,27.1z"></path> </g> </g> </g> </g> </g> </g> </g> </g> </g> <g> <g> <g> <g> <g> <g> <g> <g> <path class="st8" d="M-51.1,28c0,0.3,0.3,0.6,0.6,0.6c0.3,0,0.6-0.2,0.7-0.6c0-0.3-0.3-0.6-0.6-0.6 C-50.8,27.4-51.1,27.7-51.1,28z"></path> </g> </g> </g> </g> </g> </g> </g> <g> <g> <g> <g> <g> <g> <g> <g> <path class="st8" d="M-51.7,27.2c0.1,0.1,0.6-0.3,1.2-0.3c0.7,0,1.2,0.3,1.3,0.3c0,0,0-0.2-0.3-0.3 c-0.2-0.2-0.6-0.3-1-0.3c-0.4,0-0.8,0.2-1,0.3C-51.7,27.1-51.8,27.2-51.7,27.2z"></path> </g> </g> </g> </g> </g> </g> </g> </g> </g> <g> <g> <g> <g> <g> <g> <g> <g> <path class="st8" d="M-54.2,32.3c0,0-0.4-0.1-1.1-0.2c-0.2,0-0.3-0.1-0.4-0.2c0-0.1,0-0.3,0.1-0.5 c0.2-0.4,0.3-0.9,0.5-1.3c0.7-1.9,1.2-3.4,1.2-3.5c-0.1,0-0.7,1.5-1.4,3.4c-0.2,0.5-0.3,0.9-0.5,1.3 c-0.1,0.2-0.2,0.4-0.1,0.7c0,0.1,0.2,0.2,0.3,0.3c0.1,0,0.2,0,0.3,0C-54.6,32.3-54.2,32.3-54.2,32.3z"></path> </g> </g> </g> </g> </g> </g> </g> </g> <g> <g> <g> <g> <g> <g> <g> <path class="st10" d="M-54.7,40.3c0,0,3.3,0.2,6.6-1.7c-0.1,0-1.8,3.4-6.5,2.9L-54.7,40.3z"></path> </g> </g> </g> </g> </g> </g> </g> <g> <g> <g> <g> <g> <g> <g> <path class="st11" d="M-53.9,33.9c0.2-0.3,0.7-0.5,1.1-0.5c0.3,0,0.6,0.2,0.8,0.4c0.2,0.2,0.2,0.6,0.1,0.8 c-0.2,0.3-0.6,0.3-0.9,0.2c-0.3-0.1-0.6-0.3-0.9-0.5c-0.1-0.1-0.1-0.1-0.2-0.2C-54,34.1-54,34-53.9,33.9"></path> </g> </g> </g> </g> </g> </g> </g> <g> <g> <g> <g> <g> <g> <g> <g> <path class="st8" d="M-52.2,32.7c-0.1,0-0.1,0.7-0.7,1.3c-0.6,0.5-1.4,0.4-1.4,0.5c0,0,0.2,0.1,0.5,0.2 c0.3,0,0.8-0.1,1.2-0.4c0.4-0.3,0.6-0.7,0.6-1.1C-52.1,32.9-52.1,32.7-52.2,32.7z"></path> </g> </g> </g> </g> </g> </g> </g> </g> </g> </g> </g> <g> <g> <g> <g> <g> <g> <g> <path class="st8" d="M-52,26c0.1,0.2,0.7,0.1,1.5,0.2c0.8,0.1,1.4,0.3,1.5,0.2c0-0.1-0.1-0.3-0.3-0.4 c-0.3-0.2-0.7-0.3-1.1-0.4c-0.5-0.1-0.9,0-1.2,0.1C-51.9,25.8-52,26-52,26z"></path> </g> </g> </g> </g> </g> </g> </g> <g> <g> <g> <g> <g> <g> <g> <path class="st8" d="M-58.1,25.1c0.1,0.2,0.6,0,1.2,0c0.6,0,1,0.1,1.1-0.1c0-0.1,0-0.2-0.2-0.4 c-0.2-0.1-0.5-0.3-0.9-0.3c-0.4,0-0.7,0.2-0.9,0.3C-58.1,24.9-58.2,25.1-58.1,25.1z"></path> </g> </g> </g> </g> </g> </g> </g> </g> </g> </g> </g> <g> <path class="st8" d="M-42.9,37.6c-1.4,0.3-1.5-0.4-2.5-1.4c-1-0.9-1.5-2.4-1.4-3.8c0.2-1.2,0.8-2.4,0.4-3.6 c-0.6-1.5-2.7-2-3.2-3.5c-0.3-0.9,0-1.9-0.4-2.8c-0.3-0.8-1.2-1.3-2-1.6c-0.8-0.3-1.7-0.5-2.4-1c-0.7-0.5-1.1-1.6-0.7-2.3 c3.7,0.4,7.3,1.3,10.8,2.6c0.8,0.3,1.6,0.7,2.1,1.4c0.5,0.8,0.5,1.7,0.4,2.6c-0.2,4.4-0.4,8.8-0.6,13.3"></path> </g> </g> <g> <path class="st8" d="M-39.8,27.5c0.2-1.6,1.5-3.1,3.1-3.4c1.6-0.3,3.4,0.6,4.1,2c0.7,1.4,0.4,3.1-0.2,4.5 c-0.8,1.7-2.3,3.2-4.2,3.1c-1.7-0.1-3.1-1.6-3.6-3.3c-0.5-1.7-0.3-3.4-0.1-5.2"></path> </g> <g> <g> <path class="st12" d="M-38.8,34.3c0,0,0.1-0.1,0.3-0.3c0.1-0.2,0.3-0.5,0.4-1c0.1-0.4,0.1-1,0-1.6c-0.1-0.6-0.3-1.2-0.4-1.8 c-0.1-0.6-0.2-1.3-0.1-1.8c0.1-0.5,0.4-1,0.5-1.4c0.1-0.4,0.1-0.8,0-1.1c-0.1-0.2-0.2-0.3-0.2-0.3c0,0,0.1,0.1,0.1,0.4 c0,0.2,0,0.6-0.1,1c-0.1,0.4-0.4,0.9-0.5,1.5c-0.1,0.6-0.1,1.3,0.1,1.9c0.1,0.7,0.3,1.3,0.5,1.8c0.1,0.6,0.1,1.1,0.1,1.5 C-38.4,33.8-38.9,34.2-38.8,34.3z"></path> </g> </g> <g> <g> <path class="st12" d="M-38.8,28.4c0,0,0.2,0.4,0.8,0.7c0.5,0.4,1.4,0.8,2.4,0.8c1,0,1.9-0.3,2.4-0.7c0.6-0.4,0.8-0.7,0.8-0.7 c0,0-0.3,0.3-0.9,0.6c-0.5,0.3-1.4,0.6-2.4,0.6c-1,0-1.8-0.4-2.3-0.7C-38.5,28.6-38.7,28.3-38.8,28.4z"></path> </g> </g> <g> <g> <path class="st12" d="M-38.5,29.1c0,0,0.1,0.3,0.4,0.8c0.3,0.4,0.9,1,1.6,1.4c0.7,0.4,1.5,0.6,2,0.7c0.5,0.1,0.9,0,0.9,0 c0,0-0.3,0-0.9-0.2c-0.5-0.1-1.2-0.3-1.9-0.7c-0.7-0.4-1.2-0.9-1.6-1.3C-38.3,29.4-38.5,29.1-38.5,29.1z"></path> </g> </g> <g> <g> <path class="st12" d="M-39.8,35.9C-39.7,35.9-39.7,35.9-39.8,35.9c0.1-0.1,0.1-0.2,0.2-0.3c0.1-0.2,0.2-0.5,0.3-0.9 c0.1-0.4,0.1-0.9-0.1-1.5c-0.2-0.6-0.5-1.1-1.1-1.5c-0.6-0.4-1.3-0.7-1.8-1.4c-0.2-0.3-0.3-0.7-0.3-1.2 c0.1-0.4,0.3-0.8,0.4-1.3c0.4-0.9,0.4-2-0.1-2.9c-0.2-0.5-0.6-0.9-1-1.2c-0.4-0.3-1-0.5-1.5-0.6c-0.5-0.1-1.1-0.2-1.6-0.3 c-0.5-0.1-1-0.4-1.3-0.7c-0.4-0.3-0.5-0.8-0.6-1.3c-0.1-0.5-0.1-1-0.2-1.4c-0.2-0.9-0.7-1.7-1.3-2.3c-0.6-0.6-1.4-0.9-2.1-1 c-0.7-0.1-1.4,0-1.9,0.3c-0.5,0.3-0.9,0.6-1.1,1c-0.2,0.3-0.3,0.6-0.4,0.8c-0.1,0.2,0,0.3,0,0.3c0,0,0-0.5,0.5-1.1 c0.2-0.3,0.6-0.7,1.1-0.9c0.5-0.2,1.1-0.4,1.8-0.2c0.7,0.1,1.4,0.4,2,1c0.6,0.6,1,1.4,1.3,2.3c0.1,0.4,0.2,0.9,0.2,1.4 c0.1,0.5,0.2,1,0.6,1.4c0.4,0.4,0.9,0.6,1.4,0.8c0.5,0.2,1.1,0.2,1.6,0.3c0.5,0.1,1,0.3,1.4,0.6c0.4,0.3,0.7,0.7,0.9,1.2 c0.4,0.9,0.4,1.9,0.1,2.8c-0.2,0.4-0.4,0.9-0.4,1.3c-0.1,0.5,0,0.9,0.3,1.3c0.5,0.7,1.3,1,1.9,1.4c0.6,0.4,1,0.9,1.1,1.5 c0.2,0.5,0.2,1,0.1,1.4C-39.5,35.6-39.8,35.9-39.8,35.9z"></path> </g> </g> <g> <g> <path class="st12" d="M-40.1,22.2c0,0,0-0.1,0.1-0.2c0-0.2,0-0.4-0.2-0.7c-0.2-0.3-0.4-0.5-0.8-0.7c-0.4-0.2-0.9-0.1-1.4,0 c-0.5,0.1-1.1,0.3-1.6,0.4c-0.6,0.1-1.3,0.1-1.8-0.3c-0.5-0.4-0.8-1.1-1.1-1.8c-0.3-0.7-0.6-1.4-1.1-2c-1-1.2-2.4-2.1-3.7-2.4 c-0.7-0.1-1.4-0.1-2,0.1c-0.6,0.2-1.1,0.5-1.4,0.9c-0.3,0.4-0.5,0.9-0.5,1.3c0,0.4,0,0.8,0.2,1.1c0.1,0.3,0.3,0.5,0.4,0.6 c0.1,0.1,0.2,0.2,0.2,0.1c0,0-0.3-0.2-0.5-0.7c-0.1-0.3-0.2-0.6-0.1-1c0-0.4,0.2-0.8,0.5-1.2c0.3-0.4,0.8-0.7,1.4-0.9 c0.6-0.2,1.2-0.2,1.9,0c1.3,0.3,2.6,1.1,3.6,2.4c0.5,0.6,0.8,1.3,1.1,2c0.3,0.7,0.5,1.4,1.1,1.9c0.3,0.2,0.6,0.3,1,0.4 c0.3,0,0.7,0,1-0.1c0.6-0.1,1.1-0.3,1.6-0.4c0.5-0.1,1-0.1,1.3,0c0.4,0.1,0.6,0.4,0.8,0.6c0.2,0.2,0.2,0.5,0.2,0.6 C-40.1,22.1-40.1,22.2-40.1,22.2z"></path> </g> </g> </g> <path class="st11" d="M-35.5,47.4l-8.7-2.2h-10.4c0,0-5.4,0.3-8.4,3c-0.1,0.1-1,0.9-1.6,2.7l-4.6,10.6l-2.4-13.3l-8.3,1.2 l1.3,22.9c0.5,4.9,4.1,8.8,8.8,9.9l4.7-5.3c0.5,4.3,1,8.1,1.1,8c0.1-0.1,25.9-1.7,25.9-1.7l-2.6-8.8L-35.5,47.4z"></path> <g> <g> <path class="st11" d="M-68.6,17.8c0-3.3-2.6-6-5.9-6c-3.3,0-6,2.6-6,5.9c0,2.4,1.4,4.5,3.4,5.4c0,0.7,0,1.5,0,1.5l5.2,0.1 c0,0,0-0.8,0.1-1.6C-69.9,22.1-68.6,20.1-68.6,17.8z"></path> <g> <path class="st8" d="M-73.8,24.6C-73.8,24.6-73.8,24.6-73.8,24.6c0-0.1,0-0.2,0-0.3c0-0.2,0.1-0.5,0.1-0.8 c0.1-0.4,0.1-0.8,0.3-1.3c0.1-0.5,0.3-1.1,0.6-1.7c0.1-0.3,0.3-0.6,0.5-0.9c0.1-0.1,0.2-0.3,0.4-0.4c0.2-0.1,0.4-0.1,0.6,0 c0.1,0.1,0.2,0.1,0.2,0.2c0,0.1,0,0.2,0,0.3c-0.1,0.2-0.3,0.3-0.5,0.4c-0.4,0.1-0.8,0.1-1.2-0.1c-0.4-0.2-0.7-0.6-0.8-1 c-0.1-0.2-0.1-0.5,0-0.7c0.1-0.2,0.3-0.4,0.5-0.4c0.1,0,0.2,0.1,0.3,0.2c0.1,0.1,0.1,0.2,0,0.4c-0.1,0.2-0.2,0.4-0.4,0.6 c-0.4,0.3-0.9,0.5-1.4,0.4c-0.5-0.1-0.9-0.4-1.1-0.9c-0.1-0.2-0.1-0.5,0-0.7c0-0.1,0.1-0.2,0.3-0.3c0.1,0,0.3,0,0.4,0 c0.1,0.1,0.2,0.2,0.2,0.3c0.1,0.1,0.1,0.2,0.1,0.3c0,0.2,0,0.5-0.1,0.7c-0.1,0.4-0.5,0.8-0.8,1c-0.4,0.2-0.8,0.3-1.2,0.2 c-0.2,0-0.4-0.1-0.5-0.3c-0.1-0.2-0.2-0.4,0-0.6c0.1-0.1,0.2-0.1,0.3-0.1c0.1,0,0.2,0,0.3,0.1c0.2,0.1,0.3,0.3,0.4,0.4 c0.1,0.3,0.3,0.6,0.4,0.9c0.5,1.2,0.8,2.2,1,2.9c0.1,0.3,0.2,0.6,0.2,0.8c0,0.1,0,0.2,0.1,0.2c0,0,0,0.1,0,0.1s0,0,0-0.1 c0,0,0-0.1-0.1-0.2c-0.1-0.2-0.1-0.4-0.3-0.8c-0.2-0.7-0.6-1.7-1-2.9c-0.1-0.3-0.2-0.6-0.4-0.9c-0.1-0.2-0.2-0.3-0.3-0.4 c-0.2-0.1-0.4-0.1-0.5,0.1c-0.1,0.1-0.1,0.4,0,0.5c0.1,0.1,0.3,0.2,0.5,0.3c0.4,0.1,0.8,0,1.2-0.2c0.4-0.2,0.7-0.5,0.8-1 c0.1-0.2,0.1-0.4,0.1-0.7c0-0.2-0.1-0.4-0.3-0.6c-0.1-0.1-0.2-0.1-0.3,0c-0.1,0-0.2,0.1-0.2,0.2c-0.1,0.2-0.1,0.5,0,0.7 c0.2,0.4,0.6,0.7,1.1,0.8c0.5,0.1,1-0.1,1.3-0.4c0.2-0.1,0.3-0.3,0.4-0.5c0-0.1,0-0.2,0-0.3c0-0.1-0.1-0.2-0.2-0.2 c-0.1,0-0.2,0-0.3,0.1c-0.1,0.1-0.1,0.2-0.2,0.3c-0.1,0.2,0,0.4,0,0.6c0.1,0.4,0.4,0.8,0.8,1c0.4,0.2,0.8,0.2,1.2,0.1 c0.2-0.1,0.3-0.2,0.4-0.4c0.1-0.2,0-0.4-0.1-0.5c-0.2-0.1-0.4-0.1-0.5,0c-0.2,0.1-0.3,0.2-0.4,0.3c-0.2,0.3-0.4,0.6-0.5,0.9 c-0.3,0.6-0.4,1.1-0.6,1.6c-0.1,0.5-0.2,0.9-0.3,1.3c-0.1,0.4-0.1,0.6-0.1,0.8C-73.8,24.4-73.8,24.5-73.8,24.6 C-73.8,24.6-73.8,24.6-73.8,24.6z"></path> </g> <path class="st8" d="M-72.3,25.6l-4.5,0c-0.2,0-0.3-0.2-0.3-0.3l0,0c0-0.2,0.2-0.3,0.3-0.3l4.5,0c0.2,0,0.3,0.2,0.3,0.3l0,0 C-72,25.5-72.1,25.6-72.3,25.6z"></path> <path class="st8" d="M-72.3,25.9l-4.5,0c-0.2,0-0.3,0.1-0.3,0.3c0,0.2,0.1,0.3,0.3,0.3l0.5,0l0.6,1.2c0.1,0.1,0.2,0.2,0.4,0.2 l1.6,0c0.2,0,0.3-0.1,0.4-0.2l0.6-1.2l0.3,0c0.2,0,0.3-0.1,0.3-0.3C-72,26.1-72.1,25.9-72.3,25.9z"></path> </g> <g class="st13"> <path class="st14" d="M-78.3,13.9c0.4-0.4,0.8-0.6,1.2-0.8c0.4-0.2,0.7-0.2,0.9-0.3c0.2,0,0.4,0,0.4,0c0,0.1-0.4,0.3-1,0.7 c-0.6,0.4-1.4,1.1-1.8,2.1c-0.5,1-0.5,2-0.4,2.7c0.1,0.7,0.2,1.2,0.1,1.2c0,0-0.1-0.1-0.3-0.3c-0.1-0.2-0.3-0.5-0.4-0.9 c-0.1-0.4-0.2-0.9-0.1-1.4c0-0.5,0.2-1.1,0.4-1.7"></path> </g> <g class="st13"> <path class="st14" d="M-74.4,13.2c-0.4,0-0.7-0.1-0.7-0.3c0-0.1,0.1-0.2,0.2-0.3c0.1-0.1,0.3-0.1,0.6-0.1c0.2,0,0.4,0.1,0.6,0.1 c0.1,0.1,0.2,0.2,0.2,0.3"></path> </g> <g> <path class="st12" d="M-73.4,27.9c0,0-0.1,0-0.3-0.1c-0.2-0.1-0.5-0.1-0.8-0.1c-0.3,0-0.6,0.1-0.8,0.1c-0.2,0.1-0.3,0.1-0.3,0.1 c0,0,0.1-0.1,0.3-0.2c0.2-0.1,0.5-0.2,0.8-0.2c0.3,0,0.6,0.1,0.8,0.1C-73.5,27.9-73.4,27.9-73.4,27.9z"></path> </g> <g> <path class="st12" d="M-72.6,26.6c0,0-0.8,0-1.8,0c-1,0-1.8,0-1.8-0.1c0,0,0.8,0,1.8,0C-73.5,26.6-72.6,26.6-72.6,26.6z"></path> </g> <g> <path class="st12" d="M-72.9,27.1c0,0-0.2,0-0.4,0c-0.3,0-0.7,0-1.1,0c-0.4,0-0.8,0-1.1,0c-0.3,0-0.4,0-0.4,0c0,0,0.2,0,0.4,0 c0.3,0,0.7,0,1.1,0c0.4,0,0.8,0,1.1,0C-73.1,27.1-72.9,27.1-72.9,27.1z"></path> </g> </g> <g> <path class="st8" d="M-64.1,67.6c0,0-0.1-0.1-0.3-0.3c-0.2-0.2-0.3-0.6-0.5-1c-0.3-0.9-0.2-2.3,0.2-3.7c0.5-1.4,1.1-2.6,1.4-3.4 c0.2-0.4,0.3-0.8,0.4-1.1c0.1-0.3,0.1-0.4,0.1-0.4c0,0,0,0.1-0.1,0.4c-0.1,0.3-0.2,0.6-0.3,1.1c-0.3,0.9-0.9,2.1-1.4,3.4 c-0.5,1.4-0.5,2.7-0.3,3.6C-64.5,67.1-64.1,67.6-64.1,67.6z"></path> </g> <g> <path class="st8" d="M-40,58.6c0,0,0,0.1,0,0.2c0,0.1,0.1,0.3,0.1,0.5c0.1,0.5,0.2,1.1,0.4,1.9c0.3,1.6,0.7,3.9,1.1,6.4 c0.4,2.5,0.8,4.7,1,6.4c0.1,0.8,0.2,1.5,0.2,1.9c0,0.2,0,0.4,0,0.5c0,0.1,0,0.2,0,0.2c0,0,0-0.1,0-0.2c0-0.1,0-0.3-0.1-0.5 c-0.1-0.5-0.2-1.1-0.3-1.9c-0.3-1.7-0.6-3.9-1-6.4c-0.4-2.5-0.8-4.7-1-6.4c-0.1-0.8-0.2-1.5-0.3-1.9c0-0.2-0.1-0.4-0.1-0.5 C-40,58.6-40,58.6-40,58.6z"></path> </g> <g> <path class="st8" d="M-69.6,67.9c0,0,0-0.4,0.1-1c0.1-0.6,0.1-1.4,0.1-2.3c0-0.9,0-1.7,0-2.3c0-0.6,0-1,0-1c0,0,0.1,0.4,0.1,1 c0.1,0.6,0.1,1.4,0.1,2.4c0,0.9-0.1,1.8-0.2,2.3C-69.5,67.6-69.5,67.9-69.6,67.9z"></path> </g> <g> <path class="st8" d="M-34.1,78.9c0,0-0.1-0.2-0.2-0.6c-0.2-0.3-0.5-0.8-0.9-1.1c-0.5-0.3-1-0.5-1.3-0.6c-0.4-0.1-0.6,0-0.6-0.1 c0,0,0.2-0.1,0.6-0.1c0.4,0,0.9,0.2,1.4,0.5c0.5,0.4,0.8,0.9,0.9,1.2C-34.1,78.7-34.1,78.9-34.1,78.9z"></path> </g> <g> <path class="st8" d="M-36,80c-0.1,0-0.3-0.6-0.9-1.1c-0.6-0.6-1.2-0.8-1.2-0.8c0,0,0.7,0.1,1.3,0.7C-36.1,79.3-35.9,79.9-36,80z"></path> </g> <g> <path class="st8" d="M-42.4,80c0,0,1-0.5,2.2-1c1.2-0.5,2.2-1,2.2-0.9c0,0-0.9,0.6-2.1,1.1C-41.4,79.7-42.4,80-42.4,80z"></path> </g> <g> <g> <g> <path class="st15" d="M-76.4,65.2c0,0,5,23.9,5,23.6c0-0.3,25.3,1.1,29.8,1.3l0.9-0.2l7.1-6.6l-8.2-0.7l-2.9-16.8L-76.4,65.2z"></path> <g> <path class="st12" d="M-44.6,65.8c0,0,1,5.4,2.1,12c1.1,6.6,2,12,1.9,12c0,0-1-5.4-2.1-12C-43.8,71.2-44.7,65.8-44.6,65.8z"></path> </g> <g> <path class="st12" d="M-44.5,65.8c0,0-0.1,0.1-0.2,0.2c-0.1,0.1-0.3,0.3-0.5,0.5c-0.1,0.1-0.2,0.3-0.1,0.4 c0,0.2,0.1,0.4,0.1,0.6c0.1,0.4,0.2,0.9,0.3,1.5c0.4,2.2,0.9,5.3,1.5,8.7c0.6,3.4,1.1,6.5,1.4,8.7c0.2,1.1,0.3,2,0.4,2.6 c0,0.3,0.1,0.5,0.1,0.7c0,0.2,0,0.3,0,0.3c0,0,0-0.1-0.1-0.2c0-0.2-0.1-0.4-0.1-0.7c-0.1-0.6-0.3-1.5-0.5-2.6 c-0.4-2.2-0.9-5.3-1.5-8.7c-0.6-3.4-1.1-6.5-1.4-8.7c-0.1-0.6-0.2-1.1-0.2-1.5c0-0.2-0.1-0.4-0.1-0.6 c-0.1-0.2,0.1-0.4,0.2-0.5c0.2-0.2,0.4-0.4,0.6-0.5C-44.6,65.9-44.5,65.8-44.5,65.8z"></path> </g> <g> <path class="st12" d="M-45.4,66.7c0,0-0.1,0-0.3,0c-0.2,0-0.5,0-0.9,0c-0.8,0-1.9,0-3.3,0c-2.8,0-6.6-0.1-10.8-0.2 c-4.2-0.1-8.1-0.1-10.9-0.2c-1.4,0-2.5,0-3.3,0c-0.4,0-0.7,0-0.9,0c-0.2,0-0.3,0-0.3,0c0,0,0.1,0,0.3,0c0.2,0,0.5,0,0.9,0 c0.8,0,1.9,0,3.3,0c2.8,0,6.6,0.1,10.9,0.1c4.2,0.1,8.1,0.2,10.8,0.2c1.4,0,2.5,0.1,3.3,0.1c0.4,0,0.7,0,0.9,0 C-45.5,66.7-45.4,66.7-45.4,66.7z"></path> </g> <g> <path class="st12" d="M-41.7,83.3c0,0,0.2,0,0.5,0c0.3,0,0.8,0,1.3,0.1c1.1,0.1,2.7,0.1,4.4,0.2l0.2,0l-0.2,0.1 c-0.1,0.1-0.2,0.2-0.3,0.3c-1.4,1.2-2.7,2.3-3.6,3c-0.4,0.4-0.8,0.7-1.1,0.9c-0.3,0.2-0.4,0.3-0.4,0.3c0,0,0.1-0.1,0.4-0.4 c0.3-0.2,0.6-0.6,1.1-0.9c0.9-0.8,2.2-1.9,3.6-3.1c0.1-0.1,0.2-0.2,0.3-0.3l0.1,0.2c-1.7-0.1-3.3-0.2-4.4-0.3 c-0.5,0-1-0.1-1.3-0.1C-41.5,83.3-41.7,83.3-41.7,83.3z"></path> </g> </g> <path class="st9" d="M-63.7,89.5L-63.7,89.5l-0.3-3.9c0,0,1.3-0.2,1.4,1.3v-2.4c0,0,1.5-0.3,1.8,1.6c0.3,1.9,0.8,3,0.8,3 l0.8,0.4l-0.7-4.5c0,0,1.6,0.1,1.9,1.6c0.3,1.5,0.7,2.5,0.7,2.5l2.5,0.7c0,0-1.4-1.3-1.3-1.7c0.1-0.4,0-0.4,0.3-0.5 c0.3-0.1,0.9,0.1,1.3,0.3c0.5,0.2,3.1,1.8,3.1,1.8v1.9c0,0-6.1,0.4-7.5,0.2l-2.7-0.6C-62.6,91.2-63.4,90.5-63.7,89.5z"></path> </g> <path class="st16" d="M-57.9,76.8c0.2,1-0.4,2-1.4,2.1c-0.9,0.2-1.8-0.6-2-1.6s0.4-2,1.4-2.1C-58.9,75-58.1,75.7-57.9,76.8z"></path> </g> <g class="st17"> <path d="M-37.2,76.5c1-0.3,2.2-0.3,3.2,0.1c1,0.4,1.8,1.4,1.9,2.4c0,0.2,0,0.5-0.1,0.7c-0.1,0.2-0.3,0.4-0.5,0.5 c-0.4,0.1-0.8-0.1-1-0.5c-0.2-0.3-0.3-0.7-0.5-1.1C-34.6,77.4-35.9,76.5-37.2,76.5C-37.2,76.5-37.2,76.5-37.2,76.5"></path> </g> </g> <path class="st11" d="M-55.6,46.5c0.2-0.7,0-1.4-0.1-2c-0.1-0.7-0.1-1.5,0.3-2c0.5-0.5,1.2-0.6,1.9-0.6c2.8-0.1,5.6-0.2,8.5-0.4 c0.6,0,1.2,0,1.6,0.4c0.2,0.3,0.4,0.7,0.3,1c-0.4,1.6-0.3,3,0.3,4.1"></path> <g> <path class="st8" d="M-44.1,45.7c0,0-0.1,0.1-0.4,0.3c-0.3,0.2-0.6,0.4-1.1,0.7c-1,0.5-2.4,1.1-4.1,1.3c-0.8,0.1-1.7,0.1-2.4,0 c-0.7-0.1-1.4-0.3-1.9-0.6c-0.5-0.3-0.8-0.6-1-0.8c-0.1-0.1-0.2-0.2-0.2-0.3c0-0.1-0.1-0.1-0.1-0.1c0,0,0.4,0.6,1.4,1.1 c0.5,0.3,1.1,0.4,1.8,0.6c0.7,0.1,1.5,0.1,2.4,0c1.7-0.2,3.1-0.7,4.1-1.2C-44.7,46.1-44.1,45.6-44.1,45.7z"></path> </g> <g> <path class="st8" d="M-49.9,48c0,0-0.1-0.4-0.2-0.9s-0.3-1.4-0.4-2.3c-0.1-0.4-0.1-0.9-0.2-1.3c-0.1-0.4-0.1-0.8,0-1.1 c0.1-0.3,0.3-0.5,0.4-0.6c0.2-0.1,0.3-0.1,0.3-0.1c0,0-0.1,0-0.2,0.1c-0.1,0.1-0.3,0.3-0.4,0.5c-0.1,0.3-0.1,0.6,0,1 c0.1,0.4,0.1,0.8,0.2,1.3c0.1,0.9,0.3,1.7,0.4,2.3C-49.9,47.6-49.8,48-49.9,48z"></path> </g> <g> <path class="st8" d="M-45.5,46.6c0,0-0.1-0.3-0.2-0.8c-0.1-0.5-0.2-1.1-0.3-1.9c-0.1-0.7-0.1-1.4-0.2-1.9c0-0.2-0.2-0.4-0.3-0.4 c-0.1-0.1-0.2-0.1-0.2-0.1c0,0,0.1,0,0.2,0c0.1,0.1,0.3,0.2,0.4,0.5c0.1,0.5,0.2,1.1,0.3,1.9c0.1,0.7,0.2,1.4,0.2,1.9 C-45.5,46.3-45.4,46.6-45.5,46.6z"></path> </g> <g> <path class="st8" d="M-53.5,41.9c0,0-0.3,0.1-0.6,0.5c-0.1,0.2-0.3,0.4-0.3,0.7c-0.1,0.3-0.1,0.6,0,1c0.1,0.7,0.1,1.4,0.2,1.8 c0,0.5,0,0.8,0,0.8c0,0-0.1-0.3-0.1-0.8c-0.1-0.5-0.1-1.1-0.2-1.8c0-0.4,0-0.7,0-1c0.1-0.3,0.2-0.6,0.4-0.8 C-53.9,41.9-53.5,41.8-53.5,41.9z"></path> </g> </g> <circle class="st0" cx="189" cy="50.2" r="50"></circle> <g> <g> <g> <rect x="169.4" y="58.1" transform="matrix(0.9973 -7.294961e-02 7.294961e-02 0.9973 -5.4799 14.174)" class="st8" width="43.8" height="48.1"></rect> </g> <g> <polygon class="st12" points="210.1,80.8 209.4,66.6 171.3,70.2 172.7,84.9 "></polygon> </g> <g> <path class="st12" d="M215.9,120.9l-48.9,3.3c-1.7,0.1-3.2-1.2-3.3-2.9l0,0c-0.1-1.7,1.2-3.2,2.9-3.3l48.9-3.3 c1.7-0.1,3.2,1.2,3.3,2.9l0,0C218.9,119.3,217.6,120.8,215.9,120.9z"></path> </g> </g> <g> <g> <g> <g> <polygon class="st12" points="153.8,64.7 153.5,15.1 229.8,15.1 229.8,65.2 "></polygon> </g> <g> <g> <path class="st16" d="M169.5,55.3c3-0.2,6,0.5,8.9,0.9l-1.6-0.4c-0.2-2.8,0.8-5.7,2.8-7.7c2-2,4.9-3,7.7-2.6 c2.1,0.2,4.2,1.2,6.2,0.8c3.8-0.6,5.8-5.2,9.4-6.5c4.6-1.7,10,2.3,14.6,0.4c1.9-0.8,3.2-2.4,4.9-3.4c1.5-0.9,3.6-1.1,4.8-0.1 V25.9c-1.2,2.4-4.2,3.5-6.9,3.3c-2.9-0.2-5.5-1.7-8-3.1c-2.5-1.4-5.1-2.9-7.9-3.3c-4.1-0.5-8,1.3-12,2.4 c-3.6,1-7.4,1.4-11,0.4c-0.1,0-0.2-0.1-0.4-0.1c-0.4,0.4-0.9,0.8-1.5,1.1c-3,1.5-7.1-0.5-9.8,1.4c-1.7,1.1-2.2,3.3-3.4,4.9 c-2.2,3-7.6,3.8-10.7,1.7v24.5l0,3.2l1.6,0C160.1,58.3,164.7,55.5,169.5,55.3z M216.2,33.4c0.2-0.1,0.4-0.2,0.6-0.3 c0,0,0.1,0,0.1,0l0,0c0.7-0.2,1.6,0.1,2,0.8c0.5,0.8,0.2,2.1-0.7,2.6c-0.9,0.4-2.1-0.1-2.5-1c-0.3-0.8,0.1-1.7,0.7-2.1 L216.2,33.4z"></path> </g> <g> <path class="st11" d="M227.4,36.6c-1.2-1-3.4-0.8-4.8,0.1c-1.7,1-3.1,2.7-4.9,3.4c-4.6,1.9-10-2.2-14.6-0.4 c-3.6,1.4-5.6,5.9-9.4,6.5c-2.1,0.4-4.1-0.6-6.2-0.8c-2.8-0.3-5.7,0.7-7.7,2.6c-2,2-3.1,4.9-2.8,7.7l1.6,0.4 c2.3,0.3,4.6,0.3,6.7-0.4c6.3-2.1,9.7-10.1,16.3-10.9c3.7-0.4,7.3,1.6,10.9,1c2.9-0.5,5.3-2.6,7.7-4.4 c2.4-1.7,4.8-3.3,7.5-2.3v-2.3C227.6,36.7,227.5,36.6,227.4,36.6z"></path> </g> <g> <g> <path class="st11" d="M220.1,41.4c-2.4,1.7-4.8,3.9-7.7,4.4c-3.6,0.6-7.3-1.4-10.9-1c-6.6,0.8-10,8.8-16.3,10.9 c-2.2,0.7-4.4,0.7-6.7,0.4c-2.9-0.3-5.9-1-8.9-0.9c-4.8,0.3-9.4,3-12.1,7.1l1.6,0c1.5-1.6,3.6-2.7,5.8-3.3 c3.2-0.8,6.8-0.1,9.5,1.8c0.6,0.4,1.2,0.9,1.8,1.4l12,0c0.5-0.3,1.1-0.6,1.6-0.9c2.2-1.1,4.7-1.9,7-1.4 c1.5,0.3,2.8,1.1,3.7,2.2l12.9,0c0.4-0.9,1.2-1.5,2.1-1.8c1-0.3,2.1-0.2,2.9-0.8c1-0.7,1.1-2,1.5-3.1 c1.1-3.1,4.6-5.1,7.8-4.5V39.1C224.9,38.1,222.5,39.7,220.1,41.4z M208.8,59.8c-2,1-4.8-0.1-5.6-2.3 c-0.6-1.7,0.2-3.7,1.6-4.7l-0.3,0.1c0.4-0.3,0.8-0.5,1.2-0.6c0.1-0.1,0.3-0.1,0.4-0.1l-0.1,0c1.6-0.4,3.5,0.3,4.4,1.7 C211.6,55.9,210.8,58.8,208.8,59.8z M223,45.2c-0.5,0.3-1.3,0-1.5-0.6c-0.2-0.5,0.1-1,0.5-1.3l-0.1,0.1 c0.1-0.1,0.2-0.1,0.4-0.2c0,0,0,0,0.1,0l0,0c0.4-0.1,0.9,0.1,1.2,0.5C223.8,44.1,223.6,44.9,223,45.2z"></path> </g> </g> <g> <path class="st11" d="M219.8,56.7c-0.4,1.1-0.6,2.4-1.5,3.1c-0.8,0.6-1.9,0.5-2.9,0.8c-0.9,0.3-1.7,1-2.1,1.8l14.4,0V52.2 C224.4,51.6,220.9,53.6,219.8,56.7z"></path> </g> <g> <path class="st11" d="M164.9,59.1c-2.2,0.5-4.3,1.6-5.8,3.3l17,0c-0.6-0.5-1.2-1-1.8-1.4C171.6,59,168.1,58.3,164.9,59.1z"></path> </g> <g> <path class="st11" d="M196.8,60.1c-2.4-0.5-4.9,0.3-7,1.4c-0.5,0.3-1.1,0.6-1.6,0.9l12.3,0C199.6,61.2,198.2,60.4,196.8,60.1z "></path> </g> <g> <path class="st11" d="M191.8,20.7c-2.1,0.2-4.4-0.2-6.3,0.8c-1.7,0.9-2.7,2.7-4.1,4c0.1,0,0.2,0.1,0.4,0.1 c3.6,1,7.4,0.6,11-0.4c3.9-1.1,7.9-2.9,12-2.4c2.9,0.4,5.4,1.9,7.9,3.3c2.5,1.4,5.1,2.9,8,3.1c2.7,0.2,5.7-0.9,6.9-3.3V25 v-7.9l0,0l-30.8,0C196.4,19.3,193.9,20.6,191.8,20.7z"></path> </g> <g> <path class="st11" d="M215.7,35.4c0.3,0.9,1.6,1.4,2.5,1c0.9-0.4,1.3-1.7,0.7-2.6c-0.4-0.6-1.2-0.9-2-0.8l0,0c0,0-0.1,0-0.1,0 c-0.2,0.1-0.4,0.2-0.6,0.3l0.2-0.1C215.8,33.7,215.4,34.6,215.7,35.4z"></path> </g> <g> <path class="st11" d="M206,52.2L206,52.2c-0.1,0-0.2,0-0.3,0.1c-0.4,0.1-0.8,0.3-1.2,0.6l0.3-0.1c-1.4,1-2.2,3-1.6,4.7 c0.8,2.1,3.6,3.3,5.6,2.3c2-1,2.9-3.9,1.6-5.8C209.5,52.5,207.6,51.9,206,52.2z"></path> </g> <g class="st18"> <g> <path class="st14" d="M206,52.2L206,52.2c-0.1,0-0.2,0-0.3,0.1c-0.4,0.1-0.8,0.3-1.2,0.6l0.3-0.1c-1.4,1-2.2,3-1.6,4.7 c0.8,2.1,3.6,3.3,5.6,2.3c2-1,2.9-3.9,1.6-5.8C209.5,52.5,207.6,51.9,206,52.2z"></path> </g> </g> <g> <path class="st11" d="M223.5,43.6c-0.2-0.4-0.8-0.6-1.2-0.5l0,0c0,0,0,0-0.1,0c-0.1,0-0.3,0.1-0.4,0.2l0.1-0.1 c-0.4,0.3-0.6,0.8-0.5,1.3c0.2,0.6,1,0.9,1.5,0.6C223.6,44.9,223.8,44.1,223.5,43.6z"></path> </g> <g> <path class="st11" d="M166.6,32.9c1.2-1.6,1.8-3.8,3.4-4.9c2.8-1.9,6.8,0.1,9.8-1.4c0.6-0.3,1-0.6,1.5-1.1 c1.4-1.3,2.4-3.1,4.1-4c1.9-1,4.2-0.6,6.3-0.8c2.1-0.2,4.6-1.4,4.8-3.6c0,0,0,0,0,0h-11.4h-29.4l0.1,17.4c0,0,0.1,0,0.1,0.1 C158.9,36.7,164.3,35.8,166.6,32.9z"></path> </g> <g class="st18"> <g> <path class="st14" d="M227.4,36.6c-1.2-1-3.4-0.8-4.8,0.1c-1.7,1-3.1,2.7-4.9,3.4c-4.6,1.9-10-2.2-14.6-0.4 c-3.6,1.4-5.6,5.9-9.4,6.5c-2.1,0.4-4.1-0.6-6.2-0.8c-2.8-0.3-5.7,0.7-7.7,2.6c-2,2-3.1,4.9-2.8,7.7l1.6,0.4 c2.3,0.3,4.6,0.3,6.7-0.4c6.3-2.1,9.7-10.1,16.3-10.9c3.7-0.4,7.3,1.6,10.9,1c2.9-0.5,5.3-2.6,7.7-4.4 c2.4-1.7,4.8-3.3,7.5-2.3v-2.3C227.6,36.7,227.5,36.6,227.4,36.6z"></path> </g> </g> <g class="st18"> <g> <path class="st14" d="M185.1,17.1h-29.4l0.1,17.4c0,0,0.1,0,0.1,0.1c3.1,2.1,8.5,1.2,10.7-1.7c1.2-1.6,1.8-3.8,3.4-4.9 c2.8-1.9,6.8,0.1,9.8-1.4c0.6-0.3,1-0.6,1.5-1.1c1.4-1.3,2.4-3.1,4.1-4c1.9-1,4.2-0.6,6.3-0.8c2.1-0.2,4.6-1.4,4.8-3.6"></path> </g> </g> </g> </g> <g> <g> <g> <path class="st8" d="M207.7,38.3c-0.1-0.5-1.1-4.2-2.8-11l0,0c-7.7,2-19,4.8-31.5,8l0,0l0-0.1c1,3.8,1.9,7.6,2.8,11l0,0 C194.3,41.7,206.8,38.5,207.7,38.3c-0.9,0.2-13.4,3.4-31.5,8.1l0,0l0,0c-0.9-3.5-1.8-7.2-2.8-11l0,0l0,0l0,0 c12.6-3.2,23.9-6,31.5-8l0,0l0,0C206.6,34,207.6,37.7,207.7,38.3z"></path> </g> </g> <g> <rect x="207.3" y="37.7" transform="matrix(0.9692 -0.2462 0.2462 0.9692 -2.9995 52.3036)" class="st12" width="0.8" height="0.8"></rect> </g> <g> <rect x="175.7" y="45.9" transform="matrix(0.9692 -0.2462 0.2462 0.9692 -5.9696 44.7972)" class="st12" width="0.8" height="0.8"></rect> </g> <g> <rect x="204.4" y="26.7" transform="matrix(0.9692 -0.2462 0.2462 0.9692 -0.3613 51.2708)" class="st12" width="0.8" height="0.8"></rect> </g> <g> <rect x="188.5" y="30.7" transform="matrix(0.9692 -0.2462 0.2462 0.9692 -1.8449 47.4808)" class="st12" width="0.8" height="0.8"></rect> </g> <g> <rect x="191.4" y="41.8" transform="matrix(0.9692 -0.2462 0.2462 0.9692 -4.4832 48.5136)" class="st12" width="0.8" height="0.8"></rect> </g> <g> <rect x="174.3" y="40.2" transform="matrix(0.9692 -0.2462 0.2462 0.9692 -4.6113 44.2633)" class="st12" width="0.8" height="0.8"></rect> </g> <g> <rect x="205.8" y="32.1" transform="matrix(0.9692 -0.2462 0.2462 0.9692 -1.6687 51.7727)" class="st12" width="0.8" height="0.8"></rect> </g> <g> <rect x="172.9" y="34.8" transform="matrix(0.9692 -0.2462 0.2462 0.9692 -3.3413 43.7681)" class="st12" width="0.8" height="0.8"></rect> </g> <g> <path class="st8" d="M181.1,36.2l-2.3,0.6l-0.3-1.1l5.8-1.5l0.3,1.1l-2.3,0.6l1.5,5.8l-1.3,0.3L181.1,36.2z"></path> <path class="st8" d="M190.8,37.5l-4.1,1c0.3,0.7,1.1,1.1,2,0.8c0.6-0.1,1-0.5,1.3-0.9l0.8,0.6c-0.3,0.7-1,1.2-1.9,1.4 c-1.8,0.4-3.2-0.4-3.6-1.9c-0.4-1.6,0.5-3,2-3.4c1.5-0.4,2.9,0.4,3.3,2C190.7,37.3,190.7,37.4,190.8,37.5z M186.4,37.8l3-0.8 c-0.3-0.7-1-1.1-1.8-0.9C186.8,36.3,186.4,37,186.4,37.8z"></path> <path class="st8" d="M195.7,38.6l-1.8-1.5l-0.9,2.2l-1.4,0.3l1.4-3.2l-2.6-2.1l1.4-0.3l1.7,1.4l0.8-2l1.3-0.3l-1.3,3.1l2.7,2.2 L195.7,38.6z"></path> <path class="st8" d="M201,37c-0.2,0.3-0.6,0.5-1.1,0.7c-1.1,0.3-2-0.1-2.2-1.3l-0.6-2.5l-0.9,0.2l-0.2-1l0.9-0.2l-0.3-1.2 l1.2-0.3l0.3,1.2l1.4-0.4l0.2,1l-1.4,0.4l0.6,2.5c0.1,0.5,0.5,0.7,0.9,0.6c0.3-0.1,0.5-0.2,0.6-0.4L201,37z"></path> </g> <g> <g> <path class="st8" d="M207.1,35.8c0,0-7.1,1.8-15.8,4c-8.7,2.2-15.8,4-15.8,4c0,0,7-1.8,15.8-4C200,37.5,207.1,35.7,207.1,35.8 z"></path> </g> </g> </g> <g class="st18"> <g> <path d="M219.8,56.7c-0.4,1.1-0.6,2.4-1.5,3.1c-0.8,0.6-1.9,0.5-2.9,0.8c-0.9,0.3-1.7,1-2.1,1.8l14.4,0V52.2 C224.4,51.6,220.9,53.6,219.8,56.7z"></path> </g> </g> <g class="st18"> <g> <path d="M223.5,43.6c-0.2-0.4-0.8-0.6-1.2-0.5l0,0c0,0,0,0-0.1,0c-0.1,0-0.3,0.1-0.4,0.2l0.1-0.1c-0.4,0.3-0.6,0.8-0.5,1.3 c0.2,0.6,1,0.9,1.5,0.6C223.6,44.9,223.8,44.1,223.5,43.6z"></path> </g> </g> <g class="st18"> <g> <path d="M164.9,59.1c-2.2,0.5-4.3,1.6-5.8,3.3l17,0c-0.6-0.5-1.2-1-1.8-1.4C171.6,59,168.1,58.3,164.9,59.1z"></path> </g> </g> <g class="st18"> <g> <path d="M196.8,60.1c-2.4-0.5-4.9,0.3-7,1.4c-0.5,0.3-1.1,0.6-1.6,0.9l12.3,0C199.6,61.2,198.2,60.4,196.8,60.1z"></path> </g> </g> </g> <g> <g> <path class="st11" d="M174.3,82c1.1-2,3.7-2.7,5.9-2.6c2.3,0.1,4.5,0.7,6.8,0.6c5.2-0.2,9.7-4.4,14.9-4.2 c3.1,0.1,6.2,1.7,9.2,1.2c0.7-0.1,1.6-0.4,2.2,0.2c0.4,0.4,0.4,1.2,0,1.7c-0.3,0.5-0.9,0.8-1.5,1.1c-7.9,4-17.1,4.4-25.9,5.5 c-2.3,0.3-4.5,0.6-6.8,0.2c-2.2-0.4-4.5-1.7-5.4-3.7"></path> </g> <g class="st19"> <g> <path d="M174.3,82c1.1-2,3.7-2.7,5.9-2.6c2.3,0.1,4.5,0.7,6.8,0.6c5.2-0.2,9.7-4.4,14.9-4.2c3.1,0.1,6.2,1.7,9.2,1.2 c0.7-0.1,1.6-0.4,2.2,0.2c0.4,0.4,0.4,1.2,0,1.7c-0.3,0.5-0.9,0.8-1.5,1.1c-7.9,4-17.1,4.4-25.9,5.5c-2.3,0.3-4.5,0.6-6.8,0.2 c-2.2-0.4-4.5-1.7-5.4-3.7"></path> </g> </g> </g> <g> <g> <g> <path class="st9" d="M237,69.1l-14.4-25.3l-1.2-2.3c-0.5-1-1.6-1.7-2.7-1.8l-2.3-0.2c0,0,0.2-2.7-1.1-2.5 c-0.8,0.1-3.7,2.7-3.2,3.4c0.6,0.7,2.2-1.2,2.2-1.2l0.6,4.7c0,0-4.4-2.6-5.1-2.4c-0.7,0.2-0.7,0.9-0.2,1.3 c3.4,2,4.7,4.7,5.1,5.4l0,0L225,71l-3.5,2.8l4.1,10.8l8.7-6C237.8,76.8,239,72.5,237,69.1z"></path> </g> <g> <g> <rect x="207.4" y="39" transform="matrix(0.8868 0.4621 -0.4621 0.8868 41.563 -91.5303)" class="st8" width="0.5" height="0.1"></rect> </g> <g> <path class="st8" d="M207.8,39.1l1.8,0l10.3,5.7c0.4,0.2,0.5,0.7,0.3,1l0,0c-0.2,0.4-0.7,0.5-1.1,0.3L209,40.7l-1.2-1.4 C207.7,39.2,207.7,39.1,207.8,39.1z"></path> </g> <g> <polygon class="st12" points="218.9,44.2 218.2,45.6 217.7,45.4 218.5,44 "></polygon> </g> </g> </g> <g> <path class="st9" d="M177.6,44.7c-0.7-0.1-3.4,2.4-3.4,2.4l-1.3-4.9c0,0,1.8,0.2,2.3-0.6c0.5-0.8-4.4-0.7-4.5-0.2 c-0.1,0.5,0.3,2,0.3,2l-1.9,0.4c-1.6,0.3-2.7,1.6-2.9,3.2l-0.3,2.6l0.1,0l-14.4,24c-2.3,3.8-1.5,8.7,1.9,11.6l14.4,10.2 l5.4-11.7l-10.6-7l12.2-23.5c0,0,2.7-6.9,3.3-7.2C178.5,45.6,178.3,44.8,177.6,44.7z"></path> </g> <g> <path class="st11" d="M227.8,85.2l-0.2-1.7c-0.2-2-1.2-3.8-2.8-5l0,0c-1.8-1.4-2.9-3.7-2.8-6l0-0.7l-7.4,4.5 c0,0-1.1,0.7-2.2,1.8l0,0c0,0-15.7,0.3-38.5,3.6l-8.6-3.1l0.7,0.6c0.4,2.3-0.4,4.3-2,6v0c-1.4,1.4-2.1,3.4-2,5.4l0.1,1.7 c0,0,5.2,3.4,8.9,4.6c0,0,0.1,0,0.1,0c4.4,2,11.4,4.2,20,3.8c14-0.6,25.6-8,27.1-9.1C221.9,89.8,227.8,85.2,227.8,85.2z"></path> </g> <g> <g> <g> <path class="st8" d="M174,81.7c0,0,0.1,0,0.2,0.1c0.1,0.1,0.2,0.2,0.4,0.4c0.3,0.3,0.8,0.9,1.3,1.6c0.5,0.7,1,1.6,1.3,2.8 c0.3,1.1,0.5,2.4,0.3,3.7c-0.1,0.7-0.3,1.3-0.6,1.9c-0.3,0.6-0.6,1.1-0.9,1.6c-0.7,0.9-1.4,1.7-2.1,2.2 c-0.7,0.5-1.4,0.7-1.9,0.9c-0.2,0.1-0.4,0.1-0.5,0.1c-0.1,0-0.2,0-0.2,0c0,0,0.3-0.1,0.7-0.2c0.4-0.2,1.1-0.4,1.8-0.9 c0.7-0.5,1.4-1.2,2.1-2.2c0.3-0.5,0.6-1,0.9-1.5c0.3-0.6,0.5-1.2,0.5-1.8c0.2-1.3,0-2.5-0.3-3.6c-0.3-1.1-0.8-2-1.2-2.7 c-0.5-0.7-0.9-1.2-1.3-1.6C174.2,81.9,174,81.7,174,81.7z"></path> </g> </g> <g class="st13"> <g> <path d="M214.1,94.1c1.1-0.8,0.6-2.5-0.7-3.1c-1.3-0.6-2.8-0.2-4.1,0.2c-4.3,1.4-8.3,3.5-12.6,4.9c-4.3,1.4-9,2.2-13.3,0.9 c-3-0.9-5-2.9-8.2-2.5c-1.4,0.2-1.9,2-4,2.4c0,0,3.9,1.8,9.4,3c3.5,0.7,7.6,1.1,11.8,0.7c4.1-0.3,8.4-1.2,11.9-2.4 C210.1,96.4,214.1,94.1,214.1,94.1z"></path> </g> </g> <g class="st13"> <path d="M177.4,87.6c0,0,0.4-3.8-1.9-6.1l-1.5,0.2C174,81.7,176,83.2,177.4,87.6z"></path> </g> <g> <g> <path class="st9" d="M184.7,77.5c-0.1,0.2,0.8,9,0.8,9s4.5,6.2,11.5,0.2l0.8-9.6L184.7,77.5z"></path> </g> <g class="st13"> <path d="M185.5,86.5c0,0-2.1-3.4-2.6-6l1.7-0.2l0.4,0.5L185.5,86.5z"></path> </g> </g> <g> <g> <path class="st8" d="M222.5,89c0,0-0.1,0-0.2,0.1c-0.1,0.1-0.3,0.2-0.5,0.3c-0.5,0.2-1.1,0.6-2.1,0.8c-0.5,0.1-1,0.2-1.5,0.1 c-0.6,0-1.1-0.2-1.7-0.4c-1.2-0.4-2.4-1.2-3.3-2.2c-0.5-0.5-0.8-1.1-1.1-1.8c-0.3-0.6-0.5-1.2-0.6-1.8 c-0.3-1.2-0.4-2.3-0.2-3.3c0.1-0.9,0.5-1.6,0.8-2.1c0.1-0.2,0.3-0.4,0.4-0.5c0.1-0.1,0.1-0.2,0.1-0.1c0,0,0,0.1-0.1,0.2 c-0.1,0.1-0.2,0.3-0.3,0.5c-0.3,0.4-0.6,1.1-0.7,2c-0.1,0.9,0,2,0.3,3.2c0.2,0.6,0.4,1.2,0.6,1.8c0.3,0.6,0.6,1.2,1.1,1.7 c1.8,2.1,4.6,2.9,6.4,2.5c0.9-0.2,1.6-0.5,2.1-0.7C222.2,89.1,222.4,89,222.5,89z"></path> </g> </g> <g> <g> <path class="st8" d="M212.4,86.8C212.4,86.8,212.4,86.8,212.4,86.8c-0.1,0.1-0.2,0.1-0.3,0.2c-0.2,0.1-0.5,0.3-0.9,0.5 c-0.4,0.2-0.9,0.5-1.5,0.8c-0.6,0.3-1.3,0.6-2,0.9c-0.8,0.3-1.6,0.7-2.5,1c-0.9,0.3-1.9,0.6-3,1c-2.1,0.6-4.5,1.1-7,1.5 c-2.5,0.4-4.9,0.5-7.1,0.5c-0.5,0-1.1,0-1.6,0c-0.5,0-1,0-1.5-0.1c-1,0-1.9-0.1-2.7-0.2c-0.8-0.1-1.6-0.2-2.2-0.3 c-0.7-0.1-1.2-0.2-1.7-0.3c-0.4-0.1-0.8-0.1-1-0.2c-0.1,0-0.2,0-0.3-0.1c-0.1,0-0.1,0-0.1,0c0,0,0,0,0.1,0c0.1,0,0.2,0,0.3,0 c0.3,0,0.6,0.1,1.1,0.2c0.5,0.1,1,0.2,1.7,0.2c0.7,0.1,1.4,0.2,2.2,0.2c0.8,0.1,1.7,0.2,2.7,0.2c0.5,0,1,0.1,1.5,0.1 c0.5,0,1.1,0,1.6,0c2.2,0,4.6-0.2,7.1-0.5c2.5-0.4,4.8-0.9,7-1.5c1-0.3,2-0.6,3-0.9c0.9-0.3,1.8-0.7,2.5-1 c0.8-0.3,1.4-0.6,2-0.9c0.6-0.3,1.1-0.5,1.5-0.7c0.4-0.2,0.7-0.4,1-0.5C212.2,86.9,212.3,86.8,212.4,86.8 C212.4,86.8,212.4,86.8,212.4,86.8z"></path> </g> </g> <g class="st13"> <g> <path d="M189.5,89c-0.3,0.9-0.2,1.9,0.3,2.6c0.5,0.8,1.4,1.2,2.4,1.2c0.4,0,0.9-0.1,1.2,0c0.5,0.2,0.7,0.7,1,1.1 c0.9,1.2,2.6,1.7,4.1,1.3c1.4-0.5,2.5-1.9,2.6-3.4c0-0.3,0-0.6,0.2-0.8c0.4-0.5,1.1,0,1.7,0.3c1.4,0.7,3.3,0,4-1.4 c0.8-1.4,0.5-3.2-0.4-4.4c-0.9-1.3-2.3-2.1-3.8-2.6c-1-0.3-2-0.5-2.8-1.1c-1.1-1-1.2-2.6-1.2-4"></path> </g> </g> </g> <g> <g> <path class="st8" d="M200.9,61.6c1,2.2,1.5,3.4,1.6,5.7c0.3,4.2-0.7,7.6-3,11.1c0,0,0,0,0,0c-1.7,2.6-6.7,5.7-8.2,6.2 c-1.5,0.4-7.4-3.2-8.6-7.4c-1.2-4.1-2.7-6.6-0.7-13.9c2.1-7.4,12.1-7.7,12.1-7.7s6.7,0,7.9,3.9 C203.4,63.5,200.9,61.6,200.9,61.6z"></path> </g> <g> <path class="st8" d="M190.4,69.9c-1.6,0.2-3.2,1.2-3.9,2.7c-0.7,1.5-0.5,3.4,0.4,4.7c0.8,1.2,2.2,2,2.8,3.3 c0.6,1.2,0.5,2.6,0.2,3.9c-0.3,1.3-0.7,2.6-0.7,4c0,1.3,0.6,2.8,1.8,3.4c1.2,0.6,3-0.2,3-1.6c-0.4,2.1,2,4.2,4.1,3.5 c2-0.7,2.6-3.9,0.9-5.3c1.5,0.3,3.1,0.3,4.4-0.5c1.3-0.8,1.9-2.7,1-4c-1-1.5-3.4-1.4-4.7-2.6c-1.1-1-1.1-2.7-1.2-4.2 c-0.1-2.1-0.4-4.3-1.5-6.2s-3.1-3.3-5.3-3.1"></path> </g> <g> <g> <path class="st16" d="M194.2,90.3c0,0-0.1,0-0.2-0.1c-0.1,0-0.2-0.1-0.2-0.1c-0.1-0.1-0.2-0.1-0.3-0.2c-0.5-0.4-1-1-1.4-2 c-0.2-0.5-0.3-1.1-0.4-1.7c-0.1-0.6,0-1.3,0.1-2c0.2-1.4,0.7-2.8,1.3-4.3c0.6-1.5,1.1-2.9,1.3-4.3c0.1-0.7,0.1-1.3,0.1-1.9 c-0.1-0.6-0.2-1.2-0.4-1.6c-0.4-1-0.9-1.6-1.4-2c-0.4-0.4-0.7-0.5-0.7-0.5c0,0,0.1,0,0.2,0.1c0.1,0,0.2,0.1,0.2,0.1 c0.1,0.1,0.2,0.1,0.3,0.2c0.5,0.4,1.1,1,1.5,2c0.2,0.5,0.4,1.1,0.4,1.7c0.1,0.6,0.1,1.3,0,2c-0.2,1.4-0.7,2.8-1.3,4.3 c-0.6,1.5-1.1,2.9-1.3,4.3c-0.1,0.7-0.1,1.3-0.1,1.9c0.1,0.6,0.2,1.2,0.4,1.6c0.4,1,0.9,1.6,1.3,2 C193.9,90.1,194.2,90.2,194.2,90.3z"></path> </g> </g> <g> <g> <path class="st12" d="M200.3,88.7c0,0-0.1,0-0.2,0.1c-0.2,0-0.4,0-0.7,0c-0.6,0-1.6-0.2-2.5-1c-0.4-0.4-0.9-0.9-1.2-1.5 c-0.3-0.6-0.5-1.3-0.4-2.1c0-0.8,0.3-1.5,0.6-2.3c0.3-0.8,0.6-1.5,0.8-2.4c0.4-1.7,0.5-3.3,0.2-4.8c-0.3-1.5-0.9-2.7-1.7-3.5 c-0.7-0.9-1.5-1.4-2-1.7c-0.5-0.3-0.9-0.4-0.9-0.5c0,0,0.1,0,0.2,0.1c0.2,0.1,0.4,0.2,0.7,0.3c0.6,0.3,1.3,0.8,2.1,1.7 c0.7,0.9,1.4,2.1,1.7,3.6c0.3,1.5,0.3,3.2-0.2,4.9c-0.2,0.8-0.6,1.6-0.8,2.4c-0.3,0.8-0.5,1.5-0.6,2.2 c-0.1,1.5,0.6,2.8,1.5,3.5c0.9,0.7,1.8,0.9,2.4,1C199.9,88.7,200.3,88.6,200.3,88.7z"></path> </g> </g> <g> <g> <path class="st11" d="M194.2,68.4c0,0-0.2-0.3-0.7-0.5c-0.5-0.3-1.3-0.5-2-0.2c-0.8,0.3-1.2,1-1.4,1.5 c-0.2,0.5-0.1,0.9-0.2,0.9c0,0,0-0.1,0-0.2c0-0.2,0-0.4,0.1-0.7c0.1-0.6,0.6-1.3,1.5-1.6c0.9-0.3,1.7-0.1,2.2,0.3 c0.2,0.2,0.4,0.3,0.5,0.5C194.2,68.3,194.2,68.4,194.2,68.4z"></path> </g> </g> <g> <g> <path class="st12" d="M190.3,84.8c0,0-0.1,0-0.1-0.1c-0.1-0.1-0.2-0.2-0.4-0.4c-0.3-0.3-0.7-0.9-1.1-1.6 c-0.4-0.7-0.7-1.7-0.7-2.8c0-0.5,0.1-1.1,0.4-1.7c0.3-0.5,0.7-1,1.1-1.5c0.4-0.5,0.8-0.9,0.9-1.5c0.2-0.5,0.1-1.1-0.1-1.6 c-0.3-1-0.8-1.9-0.9-2.7c-0.1-0.8,0-1.5,0.3-1.9c0.1-0.2,0.3-0.3,0.4-0.4c0.1-0.1,0.2-0.1,0.2-0.1c0,0-0.2,0.1-0.5,0.5 c-0.3,0.4-0.4,1-0.3,1.8c0.1,0.8,0.6,1.6,1,2.7c0.2,0.5,0.2,1.1,0.1,1.7c-0.2,0.6-0.6,1.1-1,1.5c-0.4,0.5-0.8,0.9-1.1,1.4 c-0.2,0.5-0.3,1.1-0.3,1.6c0,1.1,0.3,2,0.7,2.7c0.3,0.7,0.7,1.3,1,1.6C190.2,84.7,190.4,84.8,190.3,84.8z"></path> </g> </g> <g> <g> <path class="st12" d="M198.9,80.7c0,0,0-0.2,0-0.6c0-0.4,0.1-0.9,0.1-1.6c0-1.3,0-3.2-0.7-5.1c-0.7-1.9-2-3.3-3-4 c-1.1-0.7-1.9-0.9-1.9-0.9c0,0,0.1,0,0.1,0c0.1,0,0.2,0,0.4,0.1c0.4,0.1,0.9,0.3,1.4,0.7c1.1,0.7,2.4,2.1,3.2,4.1 c0.7,1.9,0.7,3.8,0.7,5.1c0,0.7-0.1,1.2-0.1,1.6C198.9,80.5,198.9,80.7,198.9,80.7z"></path> </g> </g> <g> <g> <path class="st12" d="M195.2,69.4c0,0,0-0.4,0-0.9c0-0.6,0-1.4-0.3-2.2c-0.3-0.8-1.1-1.2-1.6-1.4c-0.6-0.2-0.9-0.1-0.9-0.1 c0,0,0.4-0.1,1,0c0.3,0.1,0.6,0.2,1,0.4c0.3,0.2,0.6,0.6,0.8,1c0.4,0.9,0.3,1.7,0.3,2.3C195.3,69,195.2,69.4,195.2,69.4z"></path> </g> </g> <g> <g> <path class="st20" d="M195.9,61.9c0,0-0.2-0.1-0.6-0.2c-0.3-0.1-0.8-0.2-1.4-0.2c-0.5,0-1,0.2-1.3,0.4 c-0.3,0.2-0.5,0.3-0.5,0.3c0,0,0.1-0.2,0.4-0.4c0.3-0.2,0.8-0.4,1.4-0.5c0.6-0.1,1.1,0.1,1.4,0.3 C195.7,61.7,195.9,61.9,195.9,61.9z"></path> </g> </g> <g> <g> <path class="st12" d="M200.7,61.9c0,0-0.3-0.5-1-1c-0.7-0.6-1.9-1.1-3.2-1.1c-1.4,0-2.5,0.6-3.2,1.2c-0.7,0.6-1,1.1-1,1.1 c0,0,0-0.1,0.2-0.3c0.1-0.2,0.4-0.5,0.7-0.8c0.7-0.6,1.9-1.3,3.3-1.3c1.4,0,2.6,0.6,3.3,1.2c0.3,0.3,0.6,0.6,0.7,0.8 C200.7,61.7,200.7,61.9,200.7,61.9z"></path> </g> </g> <g> <g> <path class="st20" d="M198.4,56.2c0,0-0.5,0.1-1.3,0.3c-0.8,0.2-1.9,0.7-2.8,1.6c-0.9,0.9-1.5,1.9-1.8,2.7 c-0.3,0.8-0.4,1.3-0.4,1.3c0,0,0-0.1,0-0.4c0-0.2,0.1-0.6,0.2-1c0.3-0.8,0.8-1.9,1.8-2.8c1-0.9,2.1-1.4,2.9-1.6 c0.4-0.1,0.8-0.2,1-0.2C198.3,56.2,198.4,56.2,198.4,56.2z"></path> </g> </g> <g> <g> <path class="st12" d="M192.1,56.2c0,0-0.2,0.3-0.5,0.8c-0.3,0.5-0.5,1.3-0.5,2.1c0,0.9,0.3,1.6,0.6,2.1 c0.3,0.5,0.5,0.8,0.5,0.8c0,0-0.3-0.2-0.6-0.7c-0.3-0.5-0.7-1.3-0.7-2.2c0-0.9,0.3-1.7,0.6-2.2 C191.8,56.4,192.1,56.2,192.1,56.2z"></path> </g> </g> <g> <g> <path class="st12" d="M186.6,57.7c0,0,0,0.4,0.3,1c0.3,0.6,0.8,1.4,1.7,1.9c0.9,0.5,1.8,0.8,2.4,1c0.7,0.2,1.1,0.3,1.1,0.3 c0,0-0.4,0-1.1-0.2c-0.7-0.2-1.6-0.4-2.5-1c-0.9-0.6-1.5-1.4-1.7-2c-0.1-0.3-0.2-0.6-0.2-0.8 C186.6,57.8,186.6,57.7,186.6,57.7z"></path> </g> </g> <g> <g> <path class="st12" d="M189.7,75.3c0,0-0.1,0-0.2,0c-0.1,0-0.3-0.1-0.5-0.2c-0.5-0.2-1.1-0.5-1.8-1.1c-0.7-0.6-1.4-1.4-1.9-2.5 c-0.5-1.1-0.7-2.5-0.5-3.8c0.3-1.4,1-2.6,1.9-3.4c0.9-0.8,2-1.2,2.9-1.3c0.9-0.1,1.6,0,2.1,0.1c0.2,0.1,0.4,0.1,0.5,0.2 c0.1,0.1,0.2,0.1,0.2,0.1c0,0-0.3-0.1-0.7-0.2c-0.5-0.1-1.2-0.2-2.1-0.1c-0.9,0.1-1.9,0.5-2.8,1.3c-0.9,0.8-1.6,1.9-1.8,3.3 c-0.2,1.3-0.1,2.7,0.4,3.7c0.5,1.1,1.2,1.9,1.9,2.5c0.7,0.6,1.3,0.9,1.8,1.1C189.4,75.2,189.7,75.3,189.7,75.3z"></path> </g> </g> <g> <g> <path class="st12" d="M189.1,79.5c0,0-0.1,0-0.3-0.1c-0.2-0.1-0.4-0.2-0.7-0.4c-0.6-0.4-1.4-0.9-2.3-1.8 c-0.9-0.9-1.8-2-2.6-3.5c-0.4-0.7-0.7-1.5-1-2.4c-0.3-0.9-0.4-1.8-0.4-2.7c0-1,0.3-1.9,0.7-2.7c0.4-0.8,1-1.5,1.6-2 c1.3-1.1,2.7-1.6,3.9-1.8c1.2-0.2,2.2-0.1,2.9,0c0.3,0,0.6,0.1,0.8,0.1c0.2,0,0.3,0.1,0.3,0.1c0,0-0.1,0-0.3,0 c-0.2,0-0.4-0.1-0.8-0.1c-0.7-0.1-1.7-0.1-2.9,0.1c-1.2,0.2-2.6,0.7-3.8,1.8c-1.2,1-2.2,2.7-2.2,4.5c0,0.9,0.2,1.8,0.4,2.7 c0.3,0.8,0.6,1.6,1,2.3c0.7,1.4,1.7,2.6,2.5,3.4c0.9,0.9,1.7,1.4,2.2,1.8C188.8,79.3,189.1,79.5,189.1,79.5z"></path> </g> </g> <g> <g> <path class="st12" d="M198.8,75.2c0,0,0.6-0.8,1.1-2.3c0.2-0.8,0.4-1.7,0.3-2.7c0-1-0.3-2.2-0.9-3.2c-1.1-2.1-3.1-3.5-4.6-3.9 c-0.8-0.2-1.4-0.2-1.8-0.1c-0.4,0.1-0.6,0.2-0.7,0.2c0,0,0,0,0.2-0.1c0.1-0.1,0.3-0.1,0.5-0.2c0.4-0.1,1.1-0.2,1.9,0 c0.8,0.2,1.7,0.6,2.5,1.3c0.8,0.6,1.6,1.5,2.2,2.6c0.6,1.1,0.9,2.3,0.9,3.3c0,1.1-0.1,2-0.4,2.8c-0.3,0.8-0.6,1.3-0.8,1.7 c-0.1,0.2-0.2,0.3-0.3,0.4C198.9,75.2,198.8,75.2,198.8,75.2z"></path> </g> </g> </g> </g> </g> <g> <g> <g> <rect x="140.1" y="5.7" class="st16" width="22.3" height="38.2"></rect> </g> <g> <g> <path class="st21" d="M162.4,44c0,0,0-0.1,0-0.2c0-0.1,0-0.3,0-0.5c0-0.5,0-1.2,0-2.1c0-1.8,0-4.5,0-7.9c0-6.8,0-16.3,0-27.5 l0.1,0.1c-6.9,0-14.4,0-22.3,0h0l0.1-0.1c0,14.6,0,28,0,38.2l-0.1-0.1c6.8,0,12.4,0,16.3,0c1.9,0,3.4,0,4.5,0 c0.5,0,0.9,0,1.2,0C162.2,44,162.4,44,162.4,44s-0.1,0-0.4,0c-0.3,0-0.7,0-1.2,0c-1,0-2.5,0-4.4,0c-3.9,0-9.5,0-16.3,0l-0.1,0 l0-0.1c0-10.3,0-23.6,0-38.2l0-0.1h0.1h0c7.9,0,15.4,0,22.3,0h0.1l0,0.1c0,11.2,0,20.8,0,27.6c0,3.4,0,6,0,7.9 c0,0.9,0,1.6,0,2.1c0,0.2,0,0.4,0,0.5C162.4,43.9,162.4,44,162.4,44z"></path> </g> </g> </g> <g> <rect x="140.1" y="5.7" class="st8" width="22.3" height="3.2"></rect> </g> <g> <g> <polygon class="st8" points="145.4,13 145.7,16.6 146.7,15.3 148.4,15.2 "></polygon> </g> <g> <g> <path class="st8" d="M155.1,13c0,0,0.1,0,0.2,0.1c0.2,0.1,0.4,0.3,0.6,0.4c0.5,0.4,1.3,0.9,2.2,1.6l0.1,0.1l-0.2,0 c-0.5,0-1,0-1.6,0.1l-0.1,0l0,0c-0.4,0.5-0.7,0.9-1,1.3l-0.1,0.1l0-0.2c-0.1-1.1-0.1-2-0.2-2.6c0-0.3,0-0.5,0-0.7 C155.1,13.1,155.1,13,155.1,13c0,0,0,0.1,0,0.3c0,0.2,0,0.5,0.1,0.7c0.1,0.6,0.1,1.5,0.2,2.5l-0.1,0c0.3-0.4,0.6-0.8,1-1.3l0,0 l0,0l0.1,0c0.6,0,1.1,0,1.6-0.1l0,0.1c-0.8-0.6-1.5-1.2-2.1-1.6c-0.2-0.2-0.4-0.3-0.6-0.5C155.1,13.1,155.1,13,155.1,13z"></path> </g> </g> <g> <g> <path class="st8" d="M144.8,28.5c0,0,1.1-1.2,2.5-2.6c1.4-1.4,2.5-2.6,2.6-2.6c0,0-1.1,1.2-2.5,2.6 C146,27.4,144.8,28.5,144.8,28.5z"></path> </g> </g> <g> <g> <path class="st8" d="M160.3,25.9c0,0,0-0.3-0.1-0.8c-0.1-0.5-0.4-1.2-1.2-1.8c-0.4-0.3-0.8-0.5-1.3-0.6 c-0.5-0.1-1.1-0.1-1.7,0.2c-0.6,0.2-1.1,0.6-1.5,1.2c-0.4,0.5-0.6,1.2-0.6,1.9c0,0.7,0.2,1.4,0.6,1.9c0.4,0.5,0.9,0.9,1.5,1.2 c0.6,0.2,1.2,0.2,1.7,0.2c0.5-0.1,1-0.3,1.3-0.6c0.7-0.6,1-1.3,1.2-1.8C160.3,26.2,160.2,25.9,160.3,25.9c0,0,0,0.3-0.1,0.8 c-0.1,0.5-0.4,1.3-1.2,1.9c-0.4,0.3-0.8,0.5-1.4,0.7c-0.5,0.1-1.2,0.1-1.7-0.1c-0.6-0.2-1.1-0.6-1.5-1.2 c-0.4-0.6-0.6-1.3-0.6-2c0-0.7,0.2-1.4,0.6-2c0.4-0.6,0.9-1,1.5-1.2c0.6-0.2,1.2-0.2,1.7-0.1c0.5,0.1,1,0.4,1.4,0.7 c0.7,0.6,1,1.4,1.2,1.9C160.3,25.6,160.3,25.9,160.3,25.9z"></path> </g> </g> <g> <g> <path class="st8" d="M157.4,34.4C157.4,34.4,157.4,34.4,157.4,34.4c0.1,0.1,0.2,0.2,0.3,0.3c0.2,0.2,0.5,0.4,0.9,0.8l0,0l0,0 c-0.9,1-2.2,2.6-3.7,4.3l0,0l0,0c-0.1,0-0.3,0-0.5,0.1c-0.3,0-0.5,0.1-0.8,0.1l-0.1,0l0-0.1c0.1-0.5,0.2-1,0.3-1.5l0,0l0,0 c1-1.2,1.9-2.2,2.5-2.9C156.9,34.7,157.3,34.3,157.4,34.4C157.4,34.4,157.3,34.4,157.4,34.4c-0.1,0.1-0.2,0.2-0.3,0.3 c-0.2,0.2-0.4,0.5-0.7,0.8c-0.6,0.7-1.5,1.7-2.5,2.9l0,0c-0.1,0.5-0.2,1-0.3,1.5l-0.1-0.1c0.3,0,0.5-0.1,0.8-0.1 c0.2,0,0.3,0,0.5-0.1l0,0c1.5-1.7,2.9-3.2,3.8-4.3l0,0.1c-0.3-0.3-0.6-0.6-0.8-0.8C157.6,34.6,157.5,34.5,157.4,34.4 C157.4,34.4,157.4,34.4,157.4,34.4z"></path> </g> </g> <g> <g> <path class="st8" d="M149.2,39.6c0,0,0,0,0-0.1c0-0.1,0-0.2,0-0.3c0-0.3,0-0.6,0-1.1c0-1,0-2.3,0-3.9l0.1,0.1 c-1.5,0-3.3,0-5.2,0c0,0,0.1-0.1,0.1-0.1v0v0v0v0v0v0l0,0.1v0.2l0,0.4c0,0.2,0,0.5,0,0.7c0,0.5,0,0.9,0,1.4c0,0.9,0,1.8,0,2.5 l-0.1-0.1c1.5,0,2.8,0,3.8,0c0.4,0,0.8,0,1.1,0c0.1,0,0.2,0,0.3,0C149.2,39.6,149.2,39.6,149.2,39.6 C149.2,39.6,149.2,39.6,149.2,39.6c-0.2,0-0.3,0-0.4,0c-0.3,0-0.6,0-1.1,0c-0.9,0-2.3,0-3.8,0l-0.1,0l0-0.1c0-0.8,0-1.6,0-2.5 c0-0.5,0-0.9,0-1.4c0-0.2,0-0.5,0-0.7l0-0.4l0-0.2v-0.1v0v0v0v0v0v0c-0.1,0.1,0.1-0.1,0.1-0.1c1.9,0,3.7,0,5.2,0l0.1,0l0,0.1 c0,1.6,0,2.9,0,3.9c0,0.4,0,0.8,0,1.1C149.2,39.3,149.2,39.4,149.2,39.6C149.2,39.6,149.2,39.6,149.2,39.6z"></path> </g> </g> <g> <g> <path class="st8" d="M144.8,34.2c0,0-0.5,0.1-1.1,0.1c-0.6,0-1.1,0-1.1-0.1c0,0,0.5-0.1,1.1-0.1 C144.3,34.2,144.8,34.2,144.8,34.2z"></path> </g> </g> <g> <g> <path class="st8" d="M144,35.2c0,0-0.1-0.6-0.1-1.3c0-0.7,0-1.3,0.1-1.3c0,0,0.1,0.6,0.1,1.3C144.1,34.7,144,35.2,144,35.2z"></path> </g> </g> </g> </g> </g> <g> <g> <g> <path class="st8" d="M79.6,161.9c-0.1-0.5-1.1-4.2-2.8-11l0,0c-7.7,2-19,4.8-31.5,8l0,0l0-0.1c1,3.8,1.9,7.6,2.8,11l0,0 C66.2,165.3,78.7,162.2,79.6,161.9c-0.9,0.2-13.4,3.4-31.5,8.1l0,0l0,0c-0.9-3.5-1.8-7.2-2.8-11l0,0l0,0l0,0 c12.6-3.2,23.9-6,31.5-8l0,0l0,0C78.6,157.7,79.5,161.4,79.6,161.9z"></path> </g> </g> <g> <rect x="79.2" y="161.4" transform="matrix(0.9692 -0.2462 0.2462 0.9692 -37.3865 24.5829)" class="st12" width="0.8" height="0.8"></rect> </g> <g> <rect x="47.7" y="169.5" transform="matrix(0.9692 -0.2462 0.2462 0.9692 -40.3584 17.0753)" class="st12" width="0.8" height="0.8"></rect> </g> <g> <rect x="76.4" y="150.3" transform="matrix(0.9692 -0.2462 0.2462 0.9692 -34.7483 23.5501)" class="st12" width="0.8" height="0.8"></rect> </g> <g> <rect x="60.5" y="154.4" transform="matrix(0.9692 -0.2462 0.2462 0.9692 -36.232 19.76)" class="st12" width="0.8" height="0.8"></rect> </g> <g> <rect x="63.3" y="165.4" transform="matrix(0.9692 -0.2462 0.2462 0.9692 -38.8702 20.7928)" class="st12" width="0.8" height="0.8"></rect> </g> <g> <rect x="46.2" y="163.8" transform="matrix(0.9692 -0.2462 0.2462 0.9692 -38.9983 16.5426)" class="st12" width="0.8" height="0.8"></rect> </g> <g> <rect x="77.8" y="155.8" transform="matrix(0.9692 -0.2462 0.2462 0.9692 -36.0487 24.0563)" class="st12" width="0.8" height="0.8"></rect> </g> <g> <rect x="44.9" y="158.5" transform="matrix(0.9692 -0.2462 0.2462 0.9692 -37.73 16.0464)" class="st12" width="0.8" height="0.8"></rect> </g> <g> <path class="st8" d="M53.1,159.9l-2.3,0.6l-0.3-1.1l5.8-1.5l0.3,1.1l-2.3,0.6l1.5,5.8l-1.3,0.3L53.1,159.9z"></path> <path class="st8" d="M62.7,161.2l-4.1,1c0.3,0.7,1.1,1.1,2,0.8c0.6-0.1,1-0.5,1.3-0.9l0.8,0.6c-0.3,0.7-1,1.2-1.9,1.4 c-1.8,0.4-3.2-0.4-3.6-1.9c-0.4-1.6,0.5-3,2-3.4c1.5-0.4,2.9,0.4,3.3,2C62.6,160.9,62.7,161.1,62.7,161.2z M58.4,161.4l3-0.8 c-0.3-0.7-1-1.1-1.8-0.9C58.8,160,58.3,160.6,58.4,161.4z"></path> <path class="st8" d="M67.6,162.3l-1.8-1.5l-0.9,2.2l-1.4,0.3l1.4-3.2l-2.6-2.1l1.4-0.3l1.7,1.4l0.8-2l1.3-0.3l-1.3,3.1L69,162 L67.6,162.3z"></path> <path class="st8" d="M73,160.6c-0.2,0.3-0.6,0.5-1.1,0.7c-1.1,0.3-2-0.1-2.2-1.3l-0.6-2.5l-0.9,0.2l-0.2-1l0.9-0.2l-0.3-1.2 l1.2-0.3l0.3,1.2l1.4-0.4l0.2,1l-1.4,0.4l0.6,2.5c0.1,0.5,0.5,0.7,0.9,0.6c0.3-0.1,0.5-0.2,0.6-0.4L73,160.6z"></path> </g> <g> <g> <path class="st8" d="M79,159.4c0,0-7.1,1.8-15.8,4c-8.7,2.2-15.8,4-15.8,4c0,0,7-1.8,15.8-4C71.9,161.2,79,159.4,79,159.4z"></path> </g> </g> </g> <g> <polygon class="st22" points="40.5,21.9 40.4,15.1 59,14.9 58.8,21.9 49.6,26.9 "></polygon> <polygon class="st23" points="40.5,21.9 40.4,15.1 59,14.9 58.8,21.9 49.6,26.9 "></polygon> <path class="st23" d="M50.1,16.1c-3,0-6.9-0.5-9.6-1.8l1.6-1c1.4,0.3,4.8,0.9,8,0.9c3.2,0,6-0.4,7.3-0.9c0.9,0.7,0.9,0.6,1.8,1.3 C56.6,16,53.1,16.1,50.1,16.1z"></path> <path class="st24" d="M50.1,16.1c-3,0-6.9-0.5-9.6-1.8l1.6-1c1.4,0.3,4.8,0.9,8,0.9c3.2,0,6-0.4,7.3-0.9c0.9,0.7,0.9,0.6,1.8,1.3 C56.6,16,53.1,16.1,50.1,16.1z"></path> <path class="st23" d="M50.2,16.1c-3,0-6.7-0.2-9.4-1.5c0.8-0.4,0.7-0.4,1.7-0.1c2.4,0.7,5.3,0.8,7.7,0.8c2.4,0,5.3-0.1,7.7-0.8 c0.6-0.2,0.5-0.1,1.4,0.2C56.7,16,53.2,16.1,50.2,16.1z"></path> <path class="st25" d="M50.2,16.1c-3,0-6.7-0.2-9.4-1.5c0.8-0.4,0.7-0.4,1.7-0.1c2.4,0.7,5.3,0.8,7.7,0.8c2.4,0,5.3-0.1,7.7-0.8 c0.6-0.2,0.5-0.1,1.4,0.2C56.7,16,53.2,16.1,50.2,16.1z"></path> <path class="st26" d="M57.3,15.3c0,0-0.5,0.1-0.6,0.1c-2.1,0.4-4.5,0.5-6.4,0.5c-2.3,0-5.5-0.2-7.9-0.8"></path> <path class="st26" d="M57.5,14.9c-0.1,0-0.7,0.2-0.8,0.2c-2.1,0.4-4.3,0.5-6.3,0.5c-2.3,0-5.5-0.2-8-0.8"></path> <path class="st14" d="M59,14.3c3.4,1,6.3,1.1,11.5,2.8c-1.9,9.8-1.7,20.3,2,20.8l0,47.8c-9.5,1.2-35.4,1.2-45,0l0-47 c2.9-0.1,4.3-11.9,2.3-21.7c3.3-1,7.5-1.8,11.2-2.8C41.6,22.6,58.1,23,59,14.3z"></path> <path class="st27" d="M59,14.3c3.4,1,6.3,1.1,11.5,2.8c-1.9,9.8-1.7,20.3,2,20.8l0,47.8c-9.5,1.2-35.4,1.2-45,0l0-47 c2.9-0.1,4.3-11.9,2.3-21.7c3.3-1,7.5-1.8,11.2-2.8C41.6,22.6,58.1,23,59,14.3z"></path> <path class="st28" d="M27.6,82.7c6.1,1.2,36.4,1.2,45,0 M27.6,83.5c7.2,0.9,37.5,1,45,0"></path> <path class="st14" d="M29.9,17c-2.3,0.1-14,6.6-18.6,8.6l6.5,16.1l9.7-3C31.7,37,31.9,23.4,29.9,17z"></path> <path class="st29" d="M29.9,17c-2.3,0.1-14,6.6-18.6,8.6l6.5,16.1l9.7-3C31.7,37,31.9,23.4,29.9,17z"></path> <path class="st30" d="M12.9,24.7l6.5,16.4 M12.5,25.1l6.4,16.2"></path> <path class="st23" d="M49.8,21.6c0,0-0.1,0-0.1,0c-4.2-0.1-8.6-2.7-9-7.3l1.5-0.9c-0.1,1.9,1.8,6.5,7.7,6.5 c5.9-0.1,7.8-4.7,7.7-6.5l1.5,0.9c-0.4,4.6-4.9,7.2-9,7.3C49.9,21.6,49.8,21.6,49.8,21.6z"></path> <path class="st25" d="M49.8,21.6c0,0-0.1,0-0.1,0c-4.2-0.1-8.6-2.7-9-7.3l1.5-0.9c-0.1,1.9,1.8,6.5,7.7,6.5 c5.9-0.1,7.8-4.7,7.7-6.5l1.5,0.9c-0.4,4.6-4.9,7.2-9,7.3C49.9,21.6,49.8,21.6,49.8,21.6z"></path> <path class="st31" d="M59.2,14.4c-0.5,4.7-5,7.4-9.4,7.5c0,0-0.1,0-0.1,0c0,0-0.1,0-0.1,0c-4.4-0.1-8.8-2.7-9.2-7.4"></path> <path class="st14" d="M70.1,17.1c2.3,0.1,14,6.6,18.6,8.6l-6.5,16.1l-9.7-3C68.3,37,68.1,23.5,70.1,17.1z"></path> <path class="st29" d="M70.1,17.1c2.3,0.1,14,6.6,18.6,8.6l-6.5,16.1l-9.7-3C68.3,37,68.1,23.5,70.1,17.1z"></path> <path class="st30" d="M87.1,24.8l-6.5,16.4 M87.5,25.1l-6.4,16.2"></path> </g> <g class="st18"> <g> <path d="M70.6,68.6c-0.2-0.4-0.8-0.6-1.2-0.5l0,0c0,0,0,0-0.1,0c-0.1,0-0.3,0.1-0.4,0.2l0.1-0.1c-0.4,0.3-0.6,0.8-0.5,1.3 c0.2,0.6,1,0.9,1.5,0.6C70.8,69.9,71,69.1,70.6,68.6z"></path> </g> </g> <g> <defs> <path id="SVGID_1_" d="M72.5,38.8l9.7,3l6.5-16.1c-4.5-1.9-15.6-8.1-18.4-8.6c0,0,0,0,0,0c-5.2-1.8-8-1.8-11.5-2.8c0,0,0,0,0,0 l0,0c-0.4,4.6-4.9,7.2-9,7.3c0,0-0.1,0-0.1,0c0,0-0.1,0-0.1,0c-4.2-0.1-8.6-2.7-9-7.3l0,0c-3.7,1-7.7,1.7-10.8,2.7v0 c-2.3,0.1-14,6.6-18.6,8.6l6.5,16.1l9.7-3l0,47c9.5,1.2,35.4,1.2,45,0l0-2.3c0.1,0,0.1,0,0.2,0l-0.2,0l0-0.7c0.1,0,0.1,0,0.2,0 l-0.2,0L72.5,38.8C72.5,38.8,72.5,38.8,72.5,38.8z M27.5,38.7c0.6-0.3,1.2-0.8,1.7-1.6C28.7,38.1,28.1,38.7,27.5,38.7z"></path> </defs> <clipPath id="SVGID_2_"> <use xlink:href="#SVGID_1_" style="overflow:visible;"></use> </clipPath> <g class="st32"> <g> <g> <path class="st11" d="M74.6,61.5c-1.2-1-3.4-0.8-4.8,0.1c-1.7,1-3.1,2.7-4.9,3.4c-4.6,1.9-10-2.2-14.6-0.4 c-3.6,1.4-5.6,5.9-9.4,6.5c-2.1,0.4-4.1-0.6-6.2-0.8C31.8,70,28.9,71,26.9,73c-2,2-3.1,4.9-2.8,7.7l1.6,0.4 c2.3,0.3,4.6,0.3,6.7-0.4c6.3-2.1,9.7-10.1,16.3-10.9c3.7-0.4,7.3,1.6,10.9,1c2.9-0.5,5.3-2.6,7.7-4.4c2.4-1.7,4.8-3.3,7.5-2.3 v-2.3C74.7,61.6,74.7,61.6,74.6,61.5z"></path> </g> <g> <g> <path class="st11" d="M67.3,66.4c-2.4,1.7-4.8,3.9-7.7,4.4c-3.6,0.6-7.3-1.4-10.9-1c-6.6,0.8-10,8.8-16.3,10.9 c-2.2,0.7-4.4,0.7-6.7,0.4c-2.9-0.3-5.9-1-8.9-0.9c-4.8,0.3-9.4,3-12.1,7.1l1.6,0c1.5-1.6,3.6-2.7,5.8-3.3 c3.2-0.8,6.8-0.1,9.5,1.8c0.6,0.4,1.2,0.9,1.8,1.4l12,0c0.5-0.3,1.1-0.6,1.6-0.9c2.2-1.1,4.7-1.9,7-1.4 c1.5,0.3,2.8,1.1,3.7,2.2l12.9,0c0.4-0.9,1.2-1.5,2.1-1.8c1-0.3,2.1-0.2,2.9-0.8c1-0.7,1.1-2,1.5-3.1c1.1-3.1,4.6-5.1,7.8-4.5 V64C72.1,63,69.7,64.7,67.3,66.4z M56,84.7c-2,1-4.8-0.1-5.6-2.3c-0.6-1.7,0.2-3.7,1.6-4.7l-0.3,0.1c0.4-0.3,0.8-0.5,1.2-0.6 c0.1-0.1,0.3-0.1,0.4-0.1l-0.1,0c1.6-0.4,3.5,0.3,4.4,1.7C58.8,80.8,58,83.7,56,84.7z M70.2,70.1c-0.5,0.3-1.3,0-1.5-0.6 c-0.2-0.5,0.1-1,0.5-1.3L69,68.3c0.1-0.1,0.2-0.1,0.4-0.2c0,0,0,0,0.1,0l0,0c0.4-0.1,0.9,0.1,1.2,0.5 C71,69.1,70.8,69.9,70.2,70.1z"></path> </g> </g> <g> <path class="st11" d="M67,81.6c-0.4,1.1-0.6,2.4-1.5,3.1c-0.8,0.6-1.9,0.5-2.9,0.8c-0.9,0.3-1.7,1-2.1,1.8l14.4,0V77.1 C71.6,76.5,68.1,78.5,67,81.6z"></path> </g> <g> <path class="st11" d="M12,84c-2.2,0.5-4.3,1.6-5.8,3.3l17,0c-0.6-0.5-1.2-1-1.8-1.4C18.8,83.9,15.2,83.2,12,84z"></path> </g> <g> <path class="st11" d="M43.9,85c-2.4-0.5-4.9,0.3-7,1.4c-0.5,0.3-1.1,0.6-1.6,0.9l12.3,0C46.8,86.1,45.4,85.3,43.9,85z"></path> </g> <g> <path class="st11" d="M64.8,17.6c-2.1,0.2-4.4-0.2-6.3,0.8c-1.7,0.9-2.7,2.7-4.1,4c0.1,0,0.2,0.1,0.4,0.1c3.6,1,7.4,0.6,11-0.4 c3.9-1.1,7.9-2.9,12-2.4c2.9,0.4,5.4,1.9,7.9,3.3c2.5,1.4,5.1,2.9,8,3.1c2.7,0.2,5.7-0.9,6.9-3.3v-0.9V14l0,0l-30.8,0 C69.4,16.1,66.9,17.4,64.8,17.6z"></path> </g> <g> <path class="st11" d="M62.8,60.3c0.3,0.9,1.6,1.4,2.5,1c0.9-0.4,1.3-1.7,0.7-2.6c-0.4-0.6-1.2-0.9-2-0.8l0,0c0,0-0.1,0-0.1,0 c-0.2,0.1-0.4,0.2-0.6,0.3l0.2-0.1C62.9,58.7,62.6,59.6,62.8,60.3z"></path> </g> <g> <path class="st11" d="M53.1,77.1L53.1,77.1c-0.1,0-0.2,0-0.3,0.1c-0.4,0.1-0.8,0.3-1.2,0.6l0.3-0.1c-1.4,1-2.2,3-1.6,4.7 c0.8,2.1,3.6,3.3,5.6,2.3c2-1,2.9-3.9,1.6-5.8C56.7,77.4,54.8,76.8,53.1,77.1z"></path> </g> <g class="st18"> <g> <path class="st14" d="M53.1,77.1L53.1,77.1c-0.1,0-0.2,0-0.3,0.1c-0.4,0.1-0.8,0.3-1.2,0.6l0.3-0.1c-1.4,1-2.2,3-1.6,4.7 c0.8,2.1,3.6,3.3,5.6,2.3c2-1,2.9-3.9,1.6-5.8C56.7,77.4,54.8,76.8,53.1,77.1z"></path> </g> </g> <g> <path class="st11" d="M70.6,68.6c-0.2-0.4-0.8-0.6-1.2-0.5l0,0c0,0,0,0-0.1,0c-0.1,0-0.3,0.1-0.4,0.2l0.1-0.1 c-0.4,0.3-0.6,0.8-0.5,1.3c0.2,0.6,1,0.9,1.5,0.6C70.8,69.9,71,69.1,70.6,68.6z"></path> </g> <g> <path class="st11" d="M69.5,14c0,0.4-0.1,0.8-0.3,1.1c-0.1,0.2-0.3,0.4-0.4,0.6c0,0,0,0,0,0c-0.1,0.1-0.2,0.2-0.3,0.3 c-0.4,0.4-0.8,0.7-1.3,0.9c0,0,0,0,0,0c-0.1,0.1-0.3,0.1-0.4,0.2c-0.5,0.2-1.1,0.3-1.6,0.4c-0.1,0-0.3,0-0.4,0 c-1.3,0.1-2.8,0-4.1,0.2c-0.3,0-0.5,0.1-0.8,0.1c-0.2,0.1-0.5,0.1-0.7,0.2c-0.2,0.1-0.5,0.2-0.7,0.3c-1.7,0.9-2.8,2.7-4.2,4 c0,0,0,0,0,0c-0.4,0.4-0.9,0.8-1.5,1c-3,1.5-7.1-0.5-9.8,1.4c-1.7,1.1-2.2,3.3-3.4,4.9c-1.8,2.4-5.8,3.4-8.8,2.6 c0.8-4.9,0.4-11.4-0.9-15.3c-0.3,0-0.7,0.1-1.2,0.3l0-3.3H69.5z"></path> </g> <g class="st18"> <g> <path class="st14" d="M74.6,61.5c-1.2-1-3.4-0.8-4.8,0.1c-1.7,1-3.1,2.7-4.9,3.4c-4.6,1.9-10-2.2-14.6-0.4 c-3.6,1.4-5.6,5.9-9.4,6.5c-2.1,0.4-4.1-0.6-6.2-0.8C31.8,70,28.9,71,26.9,73c-2,2-3.1,4.9-2.8,7.7l1.6,0.4 c2.3,0.3,4.6,0.3,6.7-0.4c6.3-2.1,9.7-10.1,16.3-10.9c3.7-0.4,7.3,1.6,10.9,1c2.9-0.5,5.3-2.6,7.7-4.4c2.4-1.7,4.8-3.3,7.5-2.3 v-2.3C74.7,61.6,74.7,61.6,74.6,61.5z"></path> </g> </g> <g class="st18"> <g> <path class="st14" d="M69.5,14c0,0.4-0.1,0.8-0.3,1.1c-0.1,0.2-0.3,0.4-0.4,0.6c0,0,0,0,0,0c-0.1,0.1-0.2,0.2-0.3,0.3 c-0.4,0.4-0.8,0.7-1.3,0.9c0,0,0,0,0,0c-0.1,0.1-0.3,0.1-0.4,0.2c-0.5,0.2-1.1,0.3-1.6,0.4c-0.1,0-0.3,0-0.4,0 c-1.3,0.1-2.8,0-4.1,0.2c-0.3,0-0.5,0.1-0.8,0.1c-0.2,0.1-0.5,0.1-0.7,0.2c-0.2,0.1-0.5,0.2-0.7,0.3c-1.7,0.9-2.8,2.7-4.2,4 c0,0,0,0,0,0c-0.4,0.4-0.9,0.8-1.5,1c-3,1.5-7.1-0.5-9.8,1.4c-1.7,1.1-2.2,3.3-3.4,4.9c-1.8,2.4-5.8,3.4-8.8,2.6 c0.8-4.9,0.4-11.4-0.9-15.3c-0.3,0-0.7,0.1-1.2,0.3l0-3.3H69.5z"></path> </g> </g> </g> </g> </g> </svg> 