<?xml version="1.0" standalone="no"?>
<!DOCTYPE svg PUBLIC "-//W3C//DTD SVG 20010904//EN"
 "http://www.w3.org/TR/2001/REC-SVG-20010904/DTD/svg10.dtd">
<svg version="1.0" xmlns="http://www.w3.org/2000/svg"
 width="842.000000pt" height="1280.000000pt" viewBox="0 0 842.000000 1280.000000"
 preserveAspectRatio="xMidYMid meet">
<metadata>
Created by potrace 1.15, written by Peter Selinger 2001-2017
</metadata>
<g transform="translate(0.000000,1280.000000) scale(0.100000,-0.100000)"
fill="#cabaaf" stroke="none">
<path d="M3006 12769 c-11 -57 -6 -194 9 -254 46 -181 176 -328 309 -348 39
-6 134 7 148 21 4 4 -23 7 -60 7 -82 1 -143 27 -205 90 -52 52 -109 158 -131
241 -18 69 -21 191 -7 242 9 31 9 32 -23 32 -29 0 -34 -4 -40 -31z"/>
<path d="M4195 12768 c28 -68 46 -191 46 -317 0 -200 -35 -395 -107 -606 -121
-353 -186 -673 -215 -1055 l-13 -165 -13 55 c-77 309 -210 531 -399 666 -208
149 -491 185 -746 95 -113 -40 -183 -86 -278 -181 -137 -136 -200 -285 -200
-470 0 -249 147 -496 345 -577 207 -86 463 -35 536 108 25 50 24 58 -3 23 -55
-71 -131 -105 -249 -112 -215 -12 -365 59 -468 223 -224 355 -45 802 377 943
69 23 93 26 227 26 140 1 156 -1 230 -27 159 -56 278 -154 381 -312 150 -230
230 -509 294 -1025 27 -216 61 -398 111 -598 l40 -163 -35 -39 c-19 -21 -45
-56 -57 -78 l-23 -40 -71 58 c-97 79 -154 116 -239 155 -262 122 -618 120
-879 -3 -207 -98 -355 -274 -419 -498 -29 -101 -31 -285 -5 -384 28 -107 89
-219 162 -298 66 -71 176 -148 248 -173 31 -11 36 -16 30 -34 -24 -64 9 -165
78 -240 75 -82 165 -122 294 -133 l80 -7 -105 -54 c-58 -30 -124 -67 -147 -83
l-42 -29 -38 25 c-53 35 -108 42 -177 22 -250 -73 -553 -451 -443 -554 13 -12
36 -24 53 -28 71 -14 262 58 414 156 72 47 210 181 210 205 0 24 17 17 24 -10
12 -46 113 -143 190 -180 39 -19 68 -35 64 -35 -54 -1 -458 -93 -621 -141
-245 -72 -503 -37 -644 86 -104 91 -143 230 -95 339 24 52 17 58 -20 19 -36
-38 -49 -77 -50 -148 0 -138 79 -250 229 -325 49 -25 117 -45 233 -67 18 -3
-27 -25 -170 -82 -107 -43 -256 -105 -332 -139 -166 -74 -241 -98 -355 -113
-151 -20 -267 -1 -408 66 -201 97 -325 304 -271 453 18 50 8 54 -28 11 -33
-39 -39 -65 -34 -139 9 -127 117 -279 260 -363 115 -68 281 -104 428 -93 62 5
72 4 56 -6 -10 -7 -91 -61 -180 -121 -88 -59 -180 -122 -204 -139 -36 -27 -46
-30 -60 -20 -68 48 -97 57 -187 57 -74 0 -101 -5 -151 -26 -228 -96 -517 -405
-619 -664 -71 -181 -27 -295 116 -295 204 0 664 285 846 525 75 99 109 215 84
287 -11 31 -10 35 16 56 95 77 505 342 529 342 4 0 -15 -24 -43 -52 -92 -98
-167 -232 -198 -353 -35 -136 -8 -287 66 -366 29 -31 36 -36 24 -16 -9 16 -28
59 -42 95 -31 83 -35 214 -8 307 56 193 214 384 405 488 166 91 652 265 959
343 190 48 434 98 452 92 17 -6 -71 -116 -165 -206 -141 -135 -249 -192 -366
-192 -105 0 -161 39 -163 115 -1 26 -3 31 -10 20 -23 -42 28 -125 89 -145 40
-13 111 -16 165 -6 29 5 26 3 -18 -18 -126 -59 -362 -201 -483 -290 -329 -243
-556 -496 -729 -815 -107 -197 -221 -350 -363 -487 -197 -191 -341 -260 -523
-252 -80 3 -98 8 -134 31 -49 33 -72 74 -81 147 l-7 55 -2 -61 c-2 -84 34
-140 116 -180 50 -25 69 -29 143 -29 126 1 232 41 379 145 79 56 212 184 279
269 43 54 54 54 26 -1 -27 -53 -93 -237 -119 -333 -34 -127 -54 -250 -63 -399
l-8 -128 -37 -32 c-78 -67 -106 -205 -87 -443 34 -452 98 -645 264 -800 109
-102 183 -138 280 -134 43 1 115 80 143 156 49 133 58 178 57 290 0 139 -19
197 -149 460 -148 299 -277 478 -370 509 l-38 14 2 73 c5 181 48 398 112 571
45 123 120 302 132 313 7 7 7 3 2 -10 -14 -35 -18 -267 -6 -326 23 -110 100
-239 174 -291 29 -20 28 -18 -12 27 -182 206 -186 539 -11 873 195 372 583
733 1050 976 120 62 350 170 350 163 0 -1 -11 -38 -25 -81 -13 -44 -30 -114
-36 -157 l-12 -78 -66 -44 c-431 -287 -734 -737 -836 -1242 -123 -608 48
-1249 422 -1578 273 -240 658 -329 1018 -235 96 25 248 94 316 144 28 20 51
35 53 33 1 -2 10 -35 20 -74 17 -73 76 -238 82 -232 2 2 -7 37 -21 78 -14 41
-33 113 -41 161 l-15 88 60 71 c33 39 76 103 97 142 l37 71 13 -64 c27 -130
72 -219 155 -303 159 -159 436 -192 617 -72 90 59 126 170 87 270 -24 63 -36
65 -18 3 58 -196 -156 -335 -416 -270 -196 50 -324 180 -367 373 -25 111 -23
293 4 392 67 239 232 427 478 544 79 37 109 40 51 4 -55 -34 -143 -133 -177
-200 -40 -81 -70 -197 -70 -276 0 -88 34 -210 75 -272 20 -29 37 -53 40 -53 3
0 -6 17 -20 38 -126 191 -84 513 90 687 63 64 164 122 250 146 80 22 311 17
409 -9 222 -61 399 -202 513 -410 53 -96 55 -114 5 -36 -98 151 -271 235 -455
221 -133 -10 -251 -76 -297 -168 -30 -58 -24 -58 19 2 146 201 443 198 648 -7
285 -282 218 -787 -194 -1467 -36 -59 -67 -106 -70 -104 -2 2 8 30 22 61 14
32 41 109 60 173 105 344 82 602 -67 759 -69 73 -108 93 -43 23 95 -105 135
-223 135 -404 0 -166 -33 -325 -107 -519 -41 -110 -123 -286 -133 -286 -3 0
-56 22 -116 49 -278 124 -574 176 -869 151 -204 -16 -234 -28 -60 -22 234 7
450 -24 674 -97 120 -40 331 -133 331 -147 0 -9 -158 -263 -175 -282 -10 -11
-37 -7 -153 22 -195 49 -349 67 -576 68 -257 0 -468 -29 -706 -97 -461 -133
-853 -392 -1082 -716 -55 -77 -143 -228 -137 -234 3 -2 32 37 64 88 77 118
302 346 432 437 349 245 757 393 1212 441 129 13 495 7 586 -10 97 -19 199
-43 207 -50 4 -3 -53 -7 -125 -8 -420 -8 -805 -125 -1128 -342 -256 -172 -448
-390 -584 -666 -79 -161 -121 -278 -157 -445 -19 -90 -22 -135 -23 -315 l0
-210 26 -3 25 -3 -4 115 c-18 468 154 929 463 1241 50 50 119 113 155 140 l65
49 -61 -65 c-355 -384 -448 -814 -288 -1339 41 -134 45 -140 104 -140 l50 0
-18 37 c-87 174 -134 491 -103 703 23 155 87 337 164 465 137 227 394 451 635
555 l47 20 -30 -22 c-104 -77 -224 -217 -278 -324 -160 -319 -114 -760 101
-966 l45 -43 -47 58 c-112 140 -161 305 -159 532 1 187 38 326 121 465 133
219 342 358 607 406 103 18 382 25 437 11 l26 -7 -60 -112 c-72 -134 -126
-255 -172 -386 -19 -53 -46 -124 -60 -157 -14 -33 -25 -69 -25 -80 0 -14 4
-11 14 13 8 17 17 32 20 32 3 0 4 -4 1 -9 -3 -5 -11 -64 -16 -131 -18 -199 7
-346 85 -505 53 -110 113 -187 201 -259 138 -114 275 -165 461 -173 l122 -6
17 -46 c9 -25 18 -52 20 -58 4 -14 54 -18 54 -5 0 5 -9 35 -20 66 -14 42 -16
58 -7 60 171 48 293 114 390 208 l70 68 -8 -73 c-6 -66 -38 -260 -52 -314 -5
-22 -2 -23 49 -23 l55 0 21 104 c122 579 80 1078 -128 1511 -83 174 -232 381
-356 495 -36 33 -43 45 -33 52 24 15 152 80 189 95 l35 13 -35 -5 c-19 -2 -76
-25 -127 -51 l-92 -46 -46 37 c-25 21 -45 40 -45 44 0 10 308 411 384 500 82
95 182 187 271 246 64 44 160 85 195 85 10 0 21 4 24 9 9 14 -84 -8 -140 -33
-72 -33 -154 -89 -220 -149 -30 -27 -54 -46 -54 -43 0 3 31 49 68 103 132 188
272 418 383 628 38 72 73 136 78 144 7 11 23 5 79 -33 271 -180 485 -566 553
-1001 19 -121 17 -381 -4 -490 -56 -289 -124 -554 -213 -835 -60 -188 -204
-583 -211 -576 -2 2 3 33 11 68 52 226 80 477 80 718 -1 165 -5 230 -23 334
-57 329 -179 551 -371 675 -82 53 -94 52 -28 -2 165 -134 288 -383 345 -697
24 -132 24 -546 0 -710 -60 -406 -173 -790 -308 -1048 -38 -73 -69 -135 -69
-137 0 -3 45 -5 101 -5 l100 0 91 187 c302 628 503 1211 623 1804 35 175 114
704 137 919 16 154 16 664 0 805 -21 178 -60 407 -93 543 -56 231 -178 573
-270 753 l-28 57 49 65 c47 62 117 127 138 127 18 0 115 -290 171 -517 190
-755 218 -1629 80 -2458 -117 -700 -368 -1454 -714 -2145 -36 -71 -65 -132
-65 -135 0 -3 15 -5 33 -5 32 0 32 1 126 198 52 108 134 291 183 407 100 234
138 308 230 442 141 206 302 361 453 439 65 33 97 44 132 44 35 0 44 3 36 11
-30 30 -183 -19 -291 -93 -100 -68 -279 -258 -357 -376 -15 -23 -29 -41 -31
-40 -1 2 13 48 32 103 95 269 199 657 254 940 69 361 83 424 117 535 125 415
323 669 565 725 l63 15 -67 -4 c-213 -11 -411 -232 -553 -616 l-36 -95 6 60
c32 367 38 769 15 1095 -28 419 10 790 101 973 118 236 469 315 599 135 17
-22 30 -34 30 -25 0 8 -15 35 -33 58 -112 147 -375 125 -542 -46 -97 -98 -145
-218 -180 -445 l-15 -95 5 89 c9 159 55 329 117 434 54 91 152 184 238 225 41
20 68 37 59 37 -8 0 -52 -18 -98 -40 -188 -91 -311 -293 -336 -552 -14 -143
-16 -141 -45 27 -42 239 -111 549 -153 687 -11 34 -12 49 -3 58 8 8 8 11 -2 8
-15 -4 -148 388 -192 567 -34 141 -56 290 -47 327 19 74 139 148 238 148 74 0
103 -12 147 -58 l35 -37 -19 34 c-35 62 -65 76 -162 76 -101 0 -141 -17 -209
-86 -35 -35 -43 -39 -43 -23 0 34 85 120 152 153 75 38 59 41 -19 5 -31 -15
-74 -45 -96 -67 l-40 -40 7 102 c8 114 42 248 84 326 38 71 145 176 217 213
107 53 199 76 306 76 88 0 103 -3 162 -32 109 -54 174 -146 197 -283 20 -114
-16 -216 -103 -296 -60 -55 -120 -76 -201 -71 -49 3 -74 10 -98 28 l-33 24 16
-24 c68 -104 256 -80 365 45 66 75 87 138 88 265 1 121 -15 167 -80 240 -50
56 -19 39 48 -26 89 -86 133 -169 149 -284 7 -48 7 -44 6 35 -2 75 -6 99 -29
145 -55 112 -195 219 -334 255 -189 49 -461 -26 -603 -168 -116 -115 -175
-276 -188 -510 -8 -159 -22 -168 -23 -15 -1 422 191 688 564 783 54 14 113 25
130 26 17 1 42 5 56 9 32 11 -84 2 -160 -12 -276 -50 -477 -206 -564 -437 -55
-144 -75 -314 -57 -471 7 -55 8 -108 3 -125 l-9 -30 -15 30 c-9 17 -21 73 -28
125 -19 152 -49 313 -85 465 -57 239 -68 311 -68 450 -1 189 29 288 115 381
75 81 154 114 276 114 148 0 228 -72 240 -215 6 -81 -20 -142 -78 -184 -58
-42 -117 -49 -172 -21 l-43 22 26 -27 c38 -39 100 -44 162 -15 83 39 127 118
127 227 0 54 -5 77 -26 113 l-26 45 30 -28 c42 -40 80 -115 91 -178 l9 -54 1
56 c3 172 -187 310 -386 279 -99 -16 -167 -46 -226 -100 -97 -88 -136 -206
-138 -420 -1 -117 -2 -121 -11 -65 -12 77 -4 213 17 296 49 188 179 308 373
343 69 13 72 14 31 15 -100 2 -243 -63 -315 -143 -94 -104 -127 -209 -128
-402 l-1 -131 -88 206 c-161 377 -253 643 -277 791 -5 36 -10 124 -10 196 0
149 23 261 67 329 70 109 282 279 400 320 90 33 267 10 375 -47 77 -41 170
-140 196 -210 54 -145 27 -315 -68 -430 -35 -42 -139 -98 -184 -98 -17 0 -38
-5 -46 -11 -26 -18 90 1 143 23 170 73 253 348 163 544 -63 138 -145 198 -356
263 -29 9 -22 10 43 5 191 -13 319 -90 426 -259 17 -27 31 -44 31 -38 0 23
-101 162 -142 195 -89 73 -211 116 -338 119 l-55 1 55 9 c30 5 99 7 152 4 288
-17 518 -156 627 -379 49 -101 65 -174 64 -296 -1 -167 -50 -308 -144 -413
-82 -93 -167 -137 -309 -162 -73 -12 -74 -13 -25 -14 200 -4 380 124 459 325
74 192 63 421 -30 607 -55 109 -173 221 -295 281 -105 51 -228 86 -301 86 -26
0 -48 5 -48 10 0 16 231 12 318 -6 206 -42 388 -171 513 -362 63 -97 70 -103
30 -27 -105 199 -281 344 -486 400 -84 23 -285 31 -398 15 -241 -33 -564 -159
-675 -264 -42 -38 -142 -177 -188 -260 -18 -33 -34 -59 -34 -56 0 25 47 165
74 218 64 125 163 232 301 324 103 69 114 78 65 53 -138 -70 -306 -221 -373
-335 -44 -76 -83 -199 -93 -290 -3 -36 -12 -90 -19 -120 -8 -30 -19 -95 -26
-144 l-12 -88 -29 63 c-25 54 -29 72 -23 114 16 128 75 296 145 415 109 185
317 390 528 519 28 18 52 35 52 38 0 2 -17 -5 -37 -18 -307 -183 -515 -389
-628 -624 -43 -87 -95 -245 -95 -289 -1 -29 -22 19 -71 163 -101 293 -140 528
-140 849 0 431 88 766 247 942 199 220 577 323 909 249 30 -7 55 -14 55 -17 0
-2 -16 -23 -36 -45 -106 -116 -130 -304 -63 -477 l29 -75 -30 -23 c-97 -76
-121 -248 -52 -375 67 -124 246 -216 420 -217 191 0 428 117 547 271 22 28 47
59 55 69 8 10 52 34 98 54 46 19 126 63 178 97 l94 63 0 44 c0 42 -1 44 -19
31 -156 -116 -275 -188 -288 -176 -2 3 0 14 6 25 44 83 65 326 40 469 l-11 63
47 52 c54 60 125 203 152 303 25 98 25 330 -1 435 -24 100 -53 183 -86 250
-15 30 -33 87 -39 125 -8 44 -29 106 -58 165 -39 80 -59 108 -137 186 -75 75
-107 99 -176 132 -96 46 -189 71 -270 71 -205 2 -602 -7 -635 -14 l-40 -8 49
38 c56 43 108 57 266 76 217 25 479 -2 688 -70 156 -51 350 -160 465 -261 l47
-42 0 51 c0 50 -1 52 -57 96 -163 129 -367 221 -597 267 -94 19 -143 23 -326
23 -128 0 -245 -5 -289 -13 -40 -7 -76 -11 -78 -9 -2 3 5 20 16 38 10 19 25
53 32 76 l12 42 146 35 c80 19 166 39 191 44 28 6 35 10 20 11 -21 1 -250 -43
-330 -63 -25 -7 -25 -6 -26 61 -2 116 -72 218 -177 258 -58 22 -185 18 -238
-8 -102 -50 -152 -155 -116 -240 11 -26 12 -23 12 36 0 54 4 69 28 100 69 90
218 120 325 64 89 -46 136 -134 130 -238 l-3 -50 -115 -38 c-151 -50 -204 -72
-332 -137 -199 -100 -357 -209 -508 -350 -47 -43 -68 -60 -47 -36 52 59 105
144 134 215 80 198 -5 423 -193 509 -40 18 -67 23 -144 23 -81 0 -103 -4 -150
-26 -91 -43 -158 -113 -176 -183 -3 -14 -8 -26 -10 -26 -2 0 -25 15 -51 34
-248 175 -698 118 -1045 -132 -27 -18 -48 -31 -48 -27 0 15 157 243 233 338
45 56 128 150 186 210 l104 107 -65 0 -65 0 -54 -57 c-150 -160 -292 -347
-395 -520 -37 -62 -68 -112 -69 -110 -1 1 4 49 11 107 25 197 16 416 -22 533
-15 45 -17 47 -54 47 l-39 0 14 -32z m1835 -334 c199 -89 249 -339 111 -549
-64 -97 -154 -188 -310 -313 -226 -181 -334 -291 -450 -456 -22 -33 -41 -57
-41 -53 0 3 7 39 16 79 20 93 23 286 6 355 -31 118 -140 233 -270 284 -78 31
-213 32 -294 2 -111 -41 -187 -113 -225 -215 -14 -38 -20 -161 -11 -209 2 -11
-27 -36 -88 -77 -242 -163 -400 -419 -459 -747 l-13 -70 -1 125 c-3 401 84
842 237 1208 105 253 314 439 587 525 129 40 209 50 351 45 144 -6 253 -35
329 -87 34 -23 40 -32 37 -59 -7 -71 32 -148 91 -178 l32 -16 -28 29 c-26 28
-57 105 -57 141 0 11 3 12 14 2 13 -10 13 -7 4 18 -16 43 13 114 69 169 88 85
236 104 363 47z m1060 -149 c0 -12 -44 -92 -67 -122 -13 -18 -31 -33 -38 -33
-8 0 -76 -20 -151 -45 -145 -47 -313 -127 -411 -193 -56 -38 -242 -126 -250
-118 -10 10 206 177 328 253 94 59 287 154 409 201 152 59 180 67 180 57z
m-298 -291 c-39 -19 -87 -37 -105 -40 -39 -6 -27 1 83 45 100 40 113 38 22 -5z
m428 -13 c32 -6 3 -8 -100 -8 -96 0 -128 2 -95 7 70 10 142 10 195 1z m-45
-71 c19 0 23 -7 28 -52 21 -174 215 -341 537 -461 182 -68 384 -97 449 -64 31
15 32 15 45 -11 81 -159 124 -420 97 -591 -22 -141 -86 -291 -164 -384 l-23
-28 -33 86 c-67 177 -211 340 -377 427 -318 167 -760 152 -1085 -38 -164 -96
-262 -187 -417 -389 l-23 -30 17 35 c62 128 230 309 379 406 192 125 402 201
677 244 111 18 115 19 43 14 -114 -7 -304 -47 -426 -90 -502 -174 -835 -609
-943 -1234 -62 -357 -30 -807 84 -1186 16 -54 28 -100 26 -101 -12 -12 -116
340 -146 493 -65 338 -67 796 -5 1118 19 101 13 111 -9 14 -82 -376 -78 -793
11 -1198 32 -148 128 -436 191 -576 l49 -109 5 -132 c3 -73 4 -133 3 -133 -11
0 -179 297 -245 431 -44 90 -80 161 -80 157 0 -4 14 -42 31 -85 46 -116 136
-291 227 -441 45 -74 84 -150 88 -170 30 -171 110 -422 203 -636 34 -77 57
-136 53 -130 -15 16 -142 214 -247 384 -304 494 -485 903 -599 1359 l-45 180
21 48 c11 26 36 71 56 98 22 32 27 43 13 30 -13 -11 -39 -46 -59 -79 l-37 -60
-17 110 c-26 164 -46 361 -54 530 l-7 151 44 26 c25 15 69 33 99 42 55 15 55
15 10 10 -25 -3 -69 -17 -98 -30 l-54 -25 7 108 c10 172 33 358 60 485 13 65
27 122 30 127 3 5 31 14 62 20 73 15 170 5 228 -24 25 -13 45 -20 45 -16 0 3
-23 17 -52 31 -45 21 -66 24 -163 24 l-111 0 14 50 c22 78 97 230 149 304 26
36 82 101 125 144 63 63 82 77 108 77 43 0 130 -43 175 -87 21 -21 33 -28 26
-16 -17 33 -71 74 -135 103 l-58 27 70 47 c128 85 295 159 465 206 l68 19 19
-42 c11 -23 20 -34 20 -24 0 10 -5 28 -11 39 -15 28 -4 33 100 47 202 26 446
10 616 -41 223 -65 419 -210 524 -385 44 -73 54 -78 20 -10 -54 107 -167 234
-269 304 -242 165 -617 231 -952 167 l-77 -14 -48 30 c-64 41 -160 70 -257 77
l-78 6 38 34 c69 59 211 150 268 172 44 16 80 21 154 21 159 0 276 -43 364
-133 23 -24 36 -32 29 -20 -19 36 -83 93 -132 119 -26 13 -89 32 -140 42 l-94
19 85 13 c99 15 322 29 364 24 16 -2 39 -4 51 -4z m-2083 -172 c270 -126 316
-432 128 -863 -82 -190 -159 -469 -186 -675 l-7 -55 -19 85 c-11 47 -21 92
-23 101 -2 8 -17 46 -34 84 -81 179 -218 285 -405 315 -183 29 -399 -63 -483
-207 -14 -24 -27 -42 -29 -40 -2 2 8 46 22 97 70 264 226 500 432 655 48 36
90 65 93 65 4 0 10 -11 13 -25 4 -14 25 -45 49 -69 47 -49 108 -72 160 -60 31
8 31 8 -17 15 -57 9 -111 48 -143 105 -13 21 -23 42 -23 46 0 4 19 17 42 29
172 88 374 99 528 29 59 -27 62 -28 37 -7 -42 35 -142 67 -232 73 -93 7 -221
-13 -323 -52 -36 -13 -67 -23 -69 -20 -11 11 -14 112 -4 153 50 199 300 311
493 221z m1043 -78 c-21 -22 -46 -42 -54 -44 -66 -17 -75 -18 -61 -1 14 17
129 85 145 85 5 0 -8 -18 -30 -40z m275 -89 c36 -11 81 -30 100 -42 l34 -21
-117 -39 c-172 -56 -327 -138 -486 -256 -10 -8 -31 -10 -53 -7 l-37 6 26 41
c51 81 133 185 209 266 l79 84 90 -6 c49 -3 119 -15 155 -26z m-438 -88 c-44
-54 -105 -138 -138 -188 -32 -49 -60 -92 -61 -94 -2 -2 -6 -2 -9 2 -9 9 82
177 145 269 57 82 62 86 139 107 1 1 -33 -43 -76 -96z m-105 -10 c-19 -26 -64
-99 -101 -162 l-66 -115 -92 -33 c-51 -18 -114 -46 -141 -63 -26 -16 -45 -24
-41 -17 38 65 200 245 293 324 71 60 171 126 179 118 3 -2 -11 -26 -31 -52z
m33 -287 c0 -3 -34 -39 -76 -81 l-75 -77 27 53 c44 88 62 109 95 109 16 0 29
-2 29 -4z m-157 -41 c-9 -19 -18 -33 -20 -32 -5 6 21 67 29 67 4 0 0 -16 -9
-35z m-53 21 c0 -2 -15 -36 -34 -77 -45 -97 -99 -254 -140 -404 l-33 -120 -60
-35 c-33 -19 -73 -46 -89 -59 l-29 -23 -3 28 c-2 16 1 85 8 153 6 68 9 125 7
128 -5 5 -12 -40 -32 -209 -14 -127 -14 -127 -60 -187 -50 -66 -110 -184 -130
-258 -38 -138 -1 166 41 337 72 291 188 518 313 613 70 54 241 134 241 113z
m1711 -271 c327 -57 574 -245 680 -519 16 -43 28 -84 25 -92 -3 -7 -37 -35
-77 -63 -90 -63 -77 -68 15 -5 38 25 70 43 72 41 3 -2 9 -44 15 -93 17 -135
-9 -296 -67 -417 -15 -32 -26 -40 -70 -53 -82 -24 -162 -34 -266 -34 -91 0
-124 10 -79 25 34 10 131 123 161 186 42 90 53 156 47 284 -7 153 -42 253
-132 381 -165 233 -445 349 -761 315 -59 -6 -109 -9 -111 -7 -6 6 148 45 214
55 94 14 244 12 334 -4z m-116 -84 c272 -69 485 -287 545 -558 16 -68 13 -219
-5 -287 -9 -33 -30 -86 -47 -118 -34 -65 -147 -178 -177 -178 -29 0 -151 40
-206 67 -68 34 -148 95 -176 134 l-22 32 47 -5 c32 -4 44 -2 38 4 -6 6 -31 13
-57 15 -41 5 -48 10 -66 44 -48 96 -62 231 -33 330 18 62 65 141 101 169 l26
20 59 -33 c81 -44 149 -105 197 -178 45 -68 52 -70 20 -7 -30 59 -123 153
-193 196 l-59 37 39 18 c31 14 56 17 124 13 83 -4 84 -4 50 11 -19 9 -69 18
-111 20 -62 4 -84 2 -122 -15 l-45 -20 -74 20 c-114 31 -315 36 -444 9 -167
-34 -325 -110 -434 -208 -30 -26 -49 -41 -44 -32 82 136 232 296 355 378 99
67 214 114 326 136 103 19 281 13 388 -14z m-2726 -122 c142 -23 263 -117 334
-260 20 -42 37 -80 37 -86 0 -5 -27 -17 -61 -27 -164 -45 -302 -150 -418 -316
l-38 -55 -61 2 c-131 5 -221 64 -278 180 -26 53 -29 68 -29 163 0 93 3 112 26
161 58 124 170 209 314 239 57 11 101 11 174 -1z m911 -181 c0 -7 -7 -48 -15
-90 -23 -124 -45 -357 -45 -495 l-1 -128 -48 -52 -49 -52 -6 57 c-3 31 -9 188
-12 347 l-6 290 35 33 c36 35 127 101 140 101 4 1 7 -5 7 -11z m-208 -335 c-2
-104 1 -267 8 -363 l11 -175 -26 -56 c-50 -110 -68 -202 -69 -357 -1 -134 -2
-141 -14 -100 -21 72 -70 327 -83 433 -7 55 -12 170 -13 255 0 178 16 257 80
382 28 58 99 168 107 168 1 0 0 -84 -1 -187z m-307 95 c30 -100 46 -224 60
-459 15 -242 23 -320 51 -469 18 -100 67 -297 88 -357 8 -24 13 -43 12 -43 -2
0 -19 26 -36 58 -121 213 -270 349 -445 405 -57 18 -93 22 -200 22 -71 0 -142
-3 -157 -8 l-27 -7 6 57 c8 97 49 266 84 349 32 77 42 90 114 147 19 16 35 33
35 39 0 5 -14 -2 -31 -16 -47 -40 -54 -31 -17 21 61 86 130 153 212 207 74 49
193 105 223 106 7 0 19 -24 28 -52z m-838 -270 c49 -50 122 -80 209 -86 l72
-4 -29 -62 c-41 -90 -77 -222 -91 -341 l-12 -105 -41 -17 c-22 -9 -44 -17 -49
-18 -24 -1 -124 481 -150 725 l-6 55 30 -55 c17 -30 47 -72 67 -92z m3087
-197 c80 -77 187 -137 308 -172 97 -28 303 -36 406 -16 39 8 72 11 72 7 0 -14
-137 -142 -188 -176 -189 -126 -405 -148 -588 -59 -60 29 -127 94 -156 150
-26 49 -35 154 -19 213 10 37 72 122 89 122 3 0 37 -31 76 -69z m-1794 -123
c0 -157 30 -414 75 -647 18 -89 23 -140 18 -183 -3 -32 -9 -55 -13 -51 -27 30
-136 542 -161 754 l-12 107 39 50 c21 28 42 51 47 52 4 0 7 -37 7 -82z m-105
-200 c34 -230 93 -489 155 -683 16 -50 36 -147 44 -216 15 -124 70 -339 102
-400 8 -17 14 -33 11 -35 -7 -8 -117 183 -198 344 -96 189 -172 380 -196 492
-27 128 -24 337 6 455 19 74 49 155 57 155 1 0 9 -51 19 -112z m-1893 -114
c168 -31 336 -121 500 -266 36 -32 37 -34 28 -73 -22 -93 -6 -205 44 -300 62
-120 178 -203 315 -227 l69 -12 73 -135 c105 -196 217 -398 235 -427 l17 -25
-69 6 c-154 14 -265 72 -305 159 -22 50 -23 72 -5 109 21 38 0 34 -24 -5 -50
-82 0 -197 110 -254 l35 -18 -135 -16 c-74 -10 -189 -27 -254 -40 -106 -20
-128 -21 -200 -12 -112 16 -200 61 -243 125 -43 64 -51 124 -25 177 24 48 7
48 -25 0 -48 -69 -21 -175 62 -248 46 -40 135 -82 175 -82 32 0 23 -18 -12
-25 -18 -4 -123 -37 -233 -73 -180 -59 -210 -66 -300 -70 -122 -5 -188 12
-273 69 -87 58 -142 146 -142 230 0 41 0 41 33 35 17 -3 75 -9 128 -12 275
-18 528 142 546 344 4 38 0 69 -10 92 -14 35 -14 34 -9 -32 4 -58 1 -74 -21
-120 -15 -30 -39 -66 -54 -80 -116 -111 -344 -168 -533 -134 -272 49 -470 270
-499 556 -22 213 44 410 187 562 189 200 491 283 814 222z m1260 -2 c80 -29
163 -81 238 -150 l64 -59 -52 -104 c-67 -135 -92 -237 -99 -410 -10 -228 27
-442 123 -731 9 -27 -78 -25 -103 1 -44 47 -343 569 -343 598 0 6 15 17 32 24
41 17 105 74 124 110 8 16 13 50 13 76 -1 26 -3 37 -6 23 -2 -14 -6 -39 -8
-56 -6 -38 -57 -91 -110 -115 -66 -30 -69 -28 -113 79 -85 205 -124 386 -126
592 l-1 135 30 7 c17 4 86 6 155 4 96 -2 138 -8 182 -24z m-399 -139 c4 -76
13 -167 21 -203 8 -36 13 -66 11 -68 -5 -5 -70 183 -121 350 -4 12 6 23 33 37
21 11 41 20 44 21 3 0 9 -62 12 -137z m-124 -105 c24 -73 65 -186 91 -250 26
-65 45 -118 44 -118 -2 0 -16 19 -30 43 -35 56 -136 188 -196 258 -26 30 -48
60 -48 66 0 14 79 133 89 133 3 0 26 -60 50 -132z m911 -89 c64 -97 136 -240
225 -444 142 -328 299 -569 645 -989 213 -260 213 -260 130 -181 -84 79 -180
152 -271 207 -42 26 -73 54 -97 89 -76 114 -160 251 -239 394 -46 83 -83 146
-83 140 0 -19 159 -331 224 -439 36 -61 66 -111 66 -112 0 -1 -21 8 -47 21
-50 25 -269 97 -408 134 -105 29 -180 74 -216 130 -33 50 -36 82 -13 105 14
14 14 16 0 16 -8 0 -22 -10 -30 -21 -14 -21 -15 -20 -25 17 -61 217 -87 501
-60 677 21 141 105 367 130 351 6 -3 37 -46 69 -95z m-908 -205 c60 -84 189
-286 185 -291 -6 -5 -129 28 -156 41 -52 27 -128 105 -158 163 -34 63 -53 140
-53 208 0 83 8 85 69 18 31 -33 82 -96 113 -139z m1472 -330 c25 -77 71 -201
101 -275 72 -173 74 -179 26 -87 -55 104 -150 328 -200 473 -39 109 -42 125
-35 183 l7 64 28 -109 c15 -59 48 -171 73 -249z m3 -154 c96 -228 240 -511
351 -684 24 -37 42 -70 40 -71 -5 -5 -164 203 -236 308 -114 166 -202 378
-242 582 -25 131 -24 145 2 75 11 -30 50 -125 85 -210z m758 -57 c1 -124 6
-181 23 -263 33 -159 34 -160 7 -80 -32 96 -64 253 -66 327 -2 34 5 82 16 116
10 31 19 57 19 57 1 0 1 -71 1 -157z m24 -409 c21 -63 37 -114 35 -114 -1 0
-32 56 -68 124 -61 116 -66 130 -66 188 0 35 3 81 7 103 6 37 8 32 30 -73 13
-62 41 -165 62 -228z m-139 56 c1 -36 5 -87 10 -115 4 -27 7 -51 5 -53 -1 -1
-17 19 -34 46 -33 52 -50 138 -51 252 l0 55 35 -60 c29 -51 35 -70 35 -125z
m-1260 -48 c-7 -3 -16 2 -21 9 -16 25 -9 32 12 13 13 -12 16 -20 9 -22z m1580
-497 c65 -132 143 -301 173 -375 60 -149 111 -299 105 -306 -3 -2 -17 33 -33
79 -36 105 -155 355 -230 483 -32 55 -106 171 -165 259 l-106 161 -12 96 c-7
53 -12 105 -12 115 0 25 138 -226 280 -512z m-1822 404 c18 -28 32 -52 30 -54
-2 -2 -53 -9 -113 -15 -503 -51 -991 -277 -1269 -587 -55 -61 -64 -62 -162
-18 -50 22 -52 24 -59 73 -8 61 13 153 52 220 38 67 138 162 208 198 138 73
515 171 800 208 162 21 179 22 340 24 l140 1 33 -50z m209 29 c5 -7 16 -30 26
-50 l17 -38 -30 0 c-23 0 -35 9 -60 44 -16 25 -30 47 -30 50 0 12 68 6 77 -6z
m148 -18 c237 -41 562 -167 628 -242 15 -18 27 -35 27 -39 0 -4 -24 6 -52 21
-144 76 -381 148 -566 171 -111 14 -115 16 -137 87 -6 20 -4 23 12 19 10 -3
50 -11 88 -17z m1169 -115 c8 -22 26 -92 41 -155 15 -63 43 -157 61 -209 19
-52 32 -96 30 -98 -11 -12 -128 304 -166 452 l-29 110 24 -30 c14 -16 31 -48
39 -70z m-1425 -41 c18 -25 31 -47 29 -49 -2 -1 -56 -10 -121 -19 -234 -33
-444 -101 -612 -197 -48 -28 -90 -47 -93 -44 -4 4 3 24 15 46 24 44 17 50 -22
16 -18 -15 -28 -36 -32 -64 -4 -34 -13 -48 -41 -70 -20 -15 -71 -63 -114 -106
l-78 -80 -138 -9 c-75 -5 -161 -6 -190 -3 l-52 6 42 49 c166 186 461 367 758
464 187 61 406 102 556 105 l60 1 33 -46z m189 1 c25 -51 26 -55 14 -55 -9 0
-72 83 -72 94 0 3 8 6 18 6 11 0 26 -16 40 -45z m127 25 c172 -25 348 -81 522
-166 96 -47 182 -108 170 -120 -1 -2 -41 16 -87 40 -165 86 -399 151 -583 163
l-88 6 -20 38 c-10 21 -19 41 -19 44 0 7 25 6 105 -5z m1248 -187 c216 -339
350 -620 433 -906 36 -125 67 -257 61 -263 -2 -2 -60 106 -129 239 -225 433
-365 754 -428 980 -10 37 -17 67 -15 67 2 0 37 -53 78 -117z m-3129 30 c-32
-33 -70 -87 -91 -131 -33 -67 -38 -83 -38 -152 l0 -78 -27 19 c-39 29 -86 91
-103 139 -25 70 -21 85 33 116 62 37 265 143 274 144 3 0 -18 -25 -48 -57z
m1666 -4 c12 -16 21 -31 19 -33 -2 -1 -22 -10 -44 -18 -162 -64 -300 -204
-351 -356 -13 -37 -27 -67 -31 -67 -137 5 -341 83 -412 159 l-24 25 27 32
c116 137 374 243 683 278 110 13 110 13 133 -20z m238 14 c-10 -2 -28 -2 -40
0 -13 2 -5 4 17 4 22 1 32 -1 23 -4z m752 -99 c36 -29 88 -76 115 -105 l50
-52 -62 51 c-34 27 -92 72 -130 98 -69 50 -85 64 -105 99 -13 22 19 1 132 -91z
m-395 33 c101 -35 260 -112 349 -170 50 -33 87 -68 137 -132 38 -49 69 -89 69
-91 0 -1 -28 7 -62 18 -41 13 -101 22 -173 25 -130 6 -221 -12 -302 -57 l-53
-30 -36 40 c-151 167 -322 408 -301 423 7 4 75 6 152 4 121 -2 151 -7 220 -30z
m-449 -127 c48 -58 146 -168 216 -246 l127 -141 -19 -39 c-26 -50 -28 -93 -2
-48 43 75 37 74 83 24 23 -25 132 -136 242 -247 110 -112 199 -205 196 -207
-2 -3 -44 26 -92 64 -334 263 -728 439 -1158 517 -115 21 -115 21 -69 117 35
72 100 150 171 202 51 37 199 116 210 111 3 -1 46 -49 95 -107z m975 -86 c36
-33 92 -88 124 -124 l59 -65 -75 72 c-41 39 -112 102 -158 140 -46 37 -87 75
-89 83 -6 16 42 -20 139 -106z m-2031 -33 c0 -4 -16 -36 -37 -70 l-36 -61 -51
0 -51 1 80 74 c71 66 95 80 95 56z m2384 -17 c3 -8 2 -12 -4 -9 -6 3 -10 10
-10 16 0 14 7 11 14 -7z m-2264 -108 c24 -17 23 -17 -55 -11 -44 4 -82 9 -84
11 -1 1 7 21 20 43 l23 41 35 -33 c20 -19 47 -42 61 -51z m2021 -42 c18 -19
27 -32 19 -29 -14 6 -66 65 -58 65 2 0 20 -16 39 -36z m-121 -9 c41 -15 83
-35 94 -44 21 -18 217 -268 323 -411 44 -59 82 -125 102 -175 29 -71 121 -373
121 -392 0 -5 -13 16 -29 44 -96 175 -256 312 -421 364 -32 10 -93 21 -134 25
l-75 7 -219 231 c-120 127 -233 248 -251 268 l-33 37 34 21 c18 11 58 27 88
36 30 8 60 17 65 20 6 2 66 2 135 0 107 -3 136 -7 200 -31z m747 -17 c-3 -8
-6 -5 -6 6 -1 11 2 17 5 13 3 -3 4 -12 1 -19z m-2886 -49 c-2 -8 -13 -46 -24
-85 l-19 -71 -100 -14 c-117 -18 -115 -23 -42 100 l47 80 56 4 c76 5 87 3 82
-14z m254 6 c152 -5 354 -29 366 -43 3 -4 9 -29 12 -57 l5 -50 -319 0 c-299 0
-318 1 -314 18 3 9 8 27 11 40 3 12 13 41 21 64 13 37 19 42 42 38 14 -2 94
-7 176 -10z m-520 -97 l-54 -103 -138 -36 c-76 -19 -163 -43 -193 -52 -30 -9
-56 -14 -59 -12 -9 10 23 123 54 191 l32 71 154 17 c85 9 168 18 184 20 81 9
80 16 20 -96z m1160 2 c313 -80 595 -203 835 -363 109 -73 220 -159 281 -217
l54 -51 -75 55 c-246 180 -565 336 -860 420 -103 30 -315 74 -399 83 -34 3
-63 9 -66 13 -2 3 -7 30 -11 59 l-7 54 49 -7 c27 -4 117 -25 199 -46z m1536
-52 c31 -43 17 -34 -21 15 -19 23 -26 36 -17 28 10 -8 27 -27 38 -43z m-3151
-79 c-6 -18 -10 -46 -10 -60 0 -21 -7 -29 -30 -38 -16 -5 -30 -8 -30 -5 0 11
72 146 75 142 3 -2 0 -20 -5 -39z m1328 11 c654 -69 1210 -328 1673 -780 l104
-102 -111 100 c-374 333 -748 523 -1214 616 -187 38 -353 50 -589 43 -181 -5
-412 -30 -483 -53 -15 -5 -18 1 -17 38 0 24 4 63 7 88 l7 45 55 6 c96 10 467
9 568 -1z m-1421 -74 l-32 -64 -84 -34 c-47 -18 -89 -35 -95 -37 -6 -2 16 15
50 37 33 23 89 68 125 101 35 33 65 60 66 61 1 0 -12 -29 -30 -64z m755 -18
c-2 -46 -7 -86 -10 -89 -8 -6 -243 -69 -260 -69 -11 0 16 112 42 175 13 31 18
34 88 44 40 7 80 14 88 15 55 12 55 12 52 -76z m-309 -49 c-12 -45 -23 -92
-23 -105 0 -16 -8 -28 -22 -33 -83 -33 -216 -81 -225 -81 -18 0 -63 101 -69
156 l-6 50 93 29 c98 29 232 63 260 64 14 1 13 -9 -8 -80z m3304 49 c-3 -8 -6
-5 -6 6 -1 11 2 17 5 13 3 -3 4 -12 1 -19z m-3663 -116 c4 -28 21 -72 40 -105
l35 -57 -112 -56 c-62 -31 -118 -61 -125 -66 -21 -18 -24 -3 -13 58 12 64 56
213 68 230 7 8 75 40 94 43 4 1 9 -21 13 -47z m1251 -27 c-168 -39 -345 -113
-465 -194 -35 -24 -46 -28 -52 -17 -11 20 -39 167 -33 176 13 20 345 57 525
58 l125 1 -100 -24z m586 -36 c269 -55 586 -194 839 -367 121 -83 325 -252
304 -252 -4 0 -37 12 -73 26 -235 94 -531 109 -751 37 -231 -75 -384 -226
-420 -412 -10 -53 -6 -82 6 -45 47 145 162 272 314 347 147 72 233 91 425 91
179 0 268 -17 417 -79 71 -30 254 -142 246 -151 -2 -2 -22 3 -43 11 -22 8 -58
14 -80 13 l-40 0 43 -9 c142 -28 298 -189 377 -390 55 -140 95 -376 80 -476
l-6 -43 -27 19 c-96 67 -283 134 -424 151 -192 23 -388 -28 -478 -124 l-24
-27 56 25 c104 46 174 59 316 60 131 1 133 1 152 -24 38 -49 69 -117 96 -205
51 -172 44 -467 -17 -701 -32 -125 -39 -144 -57 -145 -15 -1 -15 -2 -1 -6 14
-3 11 -18 -21 -108 -82 -224 -183 -394 -454 -760 -134 -182 -153 -203 -107
-125 138 235 253 541 297 790 21 119 24 375 5 480 -19 108 -75 272 -122 360
-196 362 -570 584 -978 579 l-116 -2 105 -7 c437 -32 824 -295 987 -671 43
-100 82 -250 88 -343 6 -76 5 -75 -27 24 -53 167 -177 339 -328 455 -547 419
-1490 324 -1899 -190 -27 -33 -54 -71 -60 -85 -9 -18 -4 -15 16 10 15 19 45
54 67 77 l38 43 51 -28 c74 -40 149 -113 184 -179 l31 -58 -43 -90 c-71 -146
-115 -330 -115 -480 0 -48 -3 -53 -52 -102 -98 -95 -244 -171 -393 -204 -86
-19 -321 -16 -414 5 -159 36 -334 128 -463 245 -76 69 -184 214 -246 331 -180
340 -227 765 -132 1182 57 245 181 506 339 713 54 72 216 241 286 299 27 22
46 37 43 31 -3 -5 -27 -41 -52 -78 -242 -360 -312 -948 -166 -1387 89 -267
248 -445 428 -478 53 -10 64 2 12 13 -49 11 -142 78 -212 154 -97 105 -179
277 -217 456 -60 285 -33 649 70 929 31 84 117 255 148 295 18 23 18 22 24
-135 6 -165 18 -228 58 -311 47 -97 153 -184 226 -186 30 -1 42 5 69 37 38 44
71 123 87 209 8 44 8 73 -2 120 -23 113 -136 377 -203 474 l-29 42 41 30 c68
49 358 191 391 191 5 0 9 -44 9 -97 0 -125 19 -244 59 -362 l32 -94 -17 -100
c-19 -111 -15 -207 12 -297 15 -52 62 -145 69 -138 2 2 -6 35 -17 73 -17 56
-21 99 -22 210 -1 185 2 193 57 118 127 -172 312 -268 537 -280 314 -16 553
155 592 423 15 101 1 172 -45 241 -35 52 -118 103 -166 103 -25 -1 -24 -2 10
-20 44 -23 103 -88 125 -137 26 -57 23 -183 -4 -253 -48 -123 -175 -236 -314
-281 -98 -31 -252 -31 -353 1 -142 45 -279 154 -365 288 -31 51 -33 56 -20 89
31 87 140 236 222 303 l36 30 21 -34 c28 -45 95 -104 137 -122 45 -19 66 -17
29 3 -57 30 -155 137 -155 170 0 34 243 167 406 221 231 77 446 94 655 51z
m-1160 -69 c5 -34 16 -79 23 -100 l13 -38 -64 -64 c-79 -77 -126 -140 -175
-232 -36 -70 -37 -70 -47 -44 -58 152 -79 456 -33 472 44 14 267 73 270 71 1
-1 7 -30 13 -65z m2976 -172 c71 -126 102 -192 105 -221 3 -23 4 -43 2 -45 -1
-2 -19 25 -40 60 -21 35 -55 89 -76 120 -37 55 -145 339 -110 289 9 -13 63
-104 119 -203z m-598 127 c74 -25 169 -84 237 -148 161 -150 251 -345 269
-577 l7 -95 -47 70 c-150 221 -503 659 -604 749 -11 11 -21 22 -21 26 0 9 105
-7 159 -25z m822 -192 c-10 -17 -10 -16 -11 3 0 23 13 41 18 25 2 -6 -1 -18
-7 -28z m35 -177 c8 -44 12 -81 10 -83 -9 -9 -47 189 -40 205 6 13 9 11 11
-13 2 -16 11 -66 19 -109z m-69 72 c-3 -7 -5 -2 -5 12 0 14 2 19 5 13 2 -7 2
-19 0 -25z m-120 -151 l56 -98 -6 -237 c-4 -130 -10 -261 -13 -290 l-7 -53
-28 49 c-28 49 -28 50 -33 278 -4 201 -16 332 -42 453 -7 35 2 21 73 -102z
m279 -389 c31 -77 54 -141 51 -144 -2 -2 -21 37 -42 88 -21 51 -71 159 -112
240 -52 102 -73 153 -68 165 9 22 85 -134 171 -349z m-30 -106 c30 -67 54
-128 54 -135 0 -8 -20 -29 -46 -47 -25 -19 -64 -59 -86 -90 -23 -30 -45 -59
-49 -64 -4 -5 -19 14 -33 42 -25 49 -25 54 -16 152 5 56 13 183 16 282 l7 181
50 -99 c27 -54 74 -154 103 -222z m-464 -225 l40 -67 -13 -95 c-7 -52 -14 -93
-16 -91 -2 2 -11 50 -19 106 -8 57 -26 138 -39 179 -27 85 -20 80 47 -32z
m164 -450 c-11 -54 -23 -97 -26 -97 -3 1 -20 13 -38 29 l-33 28 26 114 c15 63
29 121 32 129 3 9 15 -9 32 -46 l28 -61 -21 -96z m-406 68 c49 -21 137 -69
189 -104 11 -7 8 -29 -19 -122 -42 -149 -115 -353 -180 -509 -57 -136 -119
-264 -125 -258 -2 1 10 57 26 123 94 384 73 696 -60 889 l-31 45 71 -20 c39
-11 97 -31 129 -44z m535 -240 c37 -99 71 -190 76 -202 14 -37 5 -27 -43 45
-25 37 -70 97 -101 133 l-55 65 21 77 c12 42 25 73 28 69 4 -4 37 -88 74 -187z
m-1937 90 c40 -9 97 -24 128 -33 l56 -17 -163 -1 c-389 -1 -684 -121 -922
-374 l-84 -89 -14 25 c-35 67 -160 151 -239 161 -40 6 -40 6 -23 26 28 31 188
134 270 173 140 66 289 111 458 139 118 19 429 13 533 -10z m1755 -110 c-5
-69 -105 -349 -215 -602 -69 -159 -71 -163 -97 -157 -14 4 -29 10 -33 13 -4 4
24 80 62 169 74 171 148 380 195 549 l28 103 31 -24 c23 -18 30 -32 29 -51z
m180 -194 c111 -165 182 -356 221 -593 36 -219 46 -345 46 -562 0 -211 -18
-506 -31 -520 -5 -6 -9 1 -9 17 0 46 -39 206 -81 331 -80 242 -188 425 -334
571 -75 75 -178 150 -229 168 -6 2 4 26 23 53 129 183 303 322 429 344 l47 8
-45 1 c-87 2 -233 -89 -356 -222 -60 -66 -64 -68 -46 -32 37 75 130 320 172
450 23 72 44 137 46 145 7 20 78 -58 147 -159z m-2674 -48 c-86 -90 -110 -122
-159 -215 l-36 -67 -16 45 -16 45 80 85 c66 69 201 184 217 184 3 0 -29 -35
-70 -77z m-276 -371 c10 -97 -17 -233 -68 -333 -25 -49 -69 -119 -75 -119 -8
0 7 166 21 225 24 109 91 285 109 285 4 0 10 -26 13 -58z m2268 -169 c-12 -20
-14 -14 -5 12 4 9 9 14 11 11 3 -2 0 -13 -6 -23z m167 -4 l31 -11 -36 -71
c-135 -271 -375 -652 -595 -947 -192 -258 -359 -475 -366 -475 -4 0 -18 8 -31
17 l-24 17 276 368 c348 467 468 649 630 961 43 83 80 152 81 152 2 0 17 -5
34 -11z m-1030 -1549 l23 -19 -92 -129 c-90 -126 -94 -129 -118 -119 -15 6
-28 12 -30 13 -3 2 110 171 168 251 19 27 20 27 49 3z m132 -106 c0 -2 -47
-49 -105 -106 -89 -87 -108 -102 -125 -94 -11 5 -20 13 -20 18 0 4 39 62 86
127 l87 120 38 -31 c22 -17 39 -33 39 -34z m147 -142 c209 -235 345 -507 417
-833 36 -162 33 -170 -18 -47 -81 197 -187 358 -336 507 -98 98 -239 206 -342
261 -32 17 -58 35 -58 40 0 4 45 51 101 104 l100 96 26 -17 c14 -10 64 -60
110 -111z m-528 -131 c11 -7 5 -22 -30 -78 -24 -37 -69 -114 -100 -171 -45
-82 -64 -107 -93 -121 -20 -11 -36 -17 -36 -15 0 11 99 200 152 292 59 101 74
114 107 93z m93 -27 c4 -3 -20 -42 -53 -87 -32 -45 -75 -110 -95 -144 -32 -55
-59 -81 -71 -69 -4 4 83 158 142 250 32 51 59 68 77 50z m110 -50 c143 -72
291 -185 391 -299 73 -83 217 -303 217 -331 0 -4 -21 23 -46 61 -53 82 -98
130 -174 190 -158 122 -385 184 -575 156 -38 -5 -71 -8 -73 -6 -10 10 159 265
176 265 7 0 45 -16 84 -36z m93 -284 c189 -59 372 -202 473 -370 l21 -36 -67
4 c-71 4 -71 3 -11 -41 86 -62 130 -179 111 -293 -36 -218 -240 -384 -473
-384 -50 0 -70 4 -80 17 -23 28 -179 123 -179 109 0 -1 24 -19 54 -40 29 -20
62 -46 72 -58 19 -20 19 -20 -16 -13 -76 15 -180 74 -244 137 -187 188 -227
506 -105 836 17 47 56 130 65 141 25 28 279 22 379 -9z m-425 -40 c-64 -125
-100 -266 -107 -420 -7 -155 10 -249 68 -368 45 -94 131 -189 211 -234 54 -30
159 -68 187 -68 20 0 56 -28 47 -37 -7 -7 -155 33 -207 56 -116 52 -232 170
-285 290 -46 103 -58 168 -58 306 0 143 17 231 73 384 35 97 55 131 76 131 13
0 12 -7 -5 -40z m-85 -17 c-24 -59 -66 -193 -81 -260 -27 -117 -25 -313 5
-418 74 -263 277 -433 561 -470 31 -4 50 -12 59 -27 13 -21 13 -21 -71 -15
-167 13 -299 76 -425 202 -66 67 -90 100 -127 176 -64 132 -80 205 -80 369 0
107 5 152 22 215 37 138 66 204 98 226 36 24 48 24 39 2z m1076 -578 c35 -157
-100 -386 -281 -473 -114 -55 -235 -77 -260 -47 -11 13 -6 15 38 15 271 0 510
236 489 482 -3 35 -8 72 -12 83 -6 16 -5 17 4 5 6 -8 16 -37 22 -65z m39 -170
c-19 -93 -81 -203 -152 -271 -75 -72 -134 -108 -229 -140 -81 -27 -134 -31
-142 -9 -5 10 4 16 31 20 233 37 409 182 474 391 12 40 24 71 26 69 2 -2 -2
-29 -8 -60z"/>
<path d="M5321 10784 c0 -11 3 -14 6 -6 3 7 2 16 -1 19 -3 4 -6 -2 -5 -13z"/>
<path d="M5024 9198 l-19 -23 23 19 c21 18 27 26 19 26 -2 0 -12 -10 -23 -22z"/>
<path d="M6251 12784 c0 -11 3 -14 6 -6 3 7 2 16 -1 19 -3 4 -6 -2 -5 -13z"/>
<path d="M7533 12403 c9 -2 23 -2 30 0 6 3 -1 5 -18 5 -16 0 -22 -2 -12 -5z"/>
<path d="M4640 196 c0 -4 8 -23 19 -44 10 -20 24 -63 31 -94 9 -47 15 -58 31
-58 16 0 18 5 13 28 -12 49 -94 196 -94 168z"/>
</g>
</svg>
