<svg viewBox="0 0 32 32" xmlns="http://www.w3.org/2000/svg"><path d="M28.18 24.79H27a3.35 3.35 0 00-6.41 0h-5.07a3.35 3.35 0 00-6.41 0h-.7a1.46 1.46 0 01-1-2.5 1.41 1.41 0 011-.42 1 1 0 00.27-.05 1 1 0 00.29 0h18.36a1 1 0 001-.79l2.54-11.9a1 1 0 00-1-1.21H7.22L6.5 4.76a.93.93 0 000-.09 1.11 1.11 0 00-.18-.33 1 1 0 00-.15-.14L6 4.11A1 1 0 005.79 4H2.13a1 1 0 000 2h2.6l.72 3.2 2.29 10.73A3.47 3.47 0 005 23.32a3.47 3.47 0 003.46 3.47h.7a3.35 3.35 0 006.41 0h5.03a3.35 3.35 0 006.41 0h1.17a1 1 0 000-2zM28.64 10l-2.11 9.9H9.77L7.66 10zM12.32 27.16a1.38 1.38 0 111.37-1.37 1.37 1.37 0 01-1.37 1.37zm11.49 0a1.38 1.38 0 111.37-1.37 1.37 1.37 0 01-1.37 1.37z" data-name="Layer 44"/></svg>