<svg viewBox="0 0 32 32" xmlns="http://www.w3.org/2000/svg" fill-rule="evenodd" clip-rule="evenodd" stroke-linejoin="round" stroke-miterlimit="2"><path d="M15.996 2.002c-7.727 0-14 6.273-14 14 0 7.726 6.273 14 14 14s14-6.274 14-14c0-7.727-6.273-14-14-14zm0 2c6.623 0 12 5.377 12 12s-5.377 12-12 12-12-5.377-12-12 5.377-12 12-12zm1.999 6.868L11.1 13.86A3.001 3.001 0 109 19.002c.82 0 1.564-.33 2.106-.864l6.889 3.014a3.001 3.001 0 102.997-3.142c-.987 0-1.864.478-2.411 1.215l-6.6-2.887a2.874 2.874 0 000-.679l6.606-2.866A3.001 3.001 0 1020.992 8a3.001 3.001 0 00-2.997 2.87zm2.997 9.14a1 1 0 110 2 1 1 0 010-2zM9 15.002a1 1 0 110 2 1 1 0 010-2zM20.992 10a1 1 0 110 2 1 1 0 010-2z"/></svg>