<svg viewBox="0 0 32 32" xmlns="http://www.w3.org/2000/svg" fill-rule="evenodd" clip-rule="evenodd" stroke-linejoin="round" stroke-miterlimit="2"><path d="M16.004 6.576c-2.941-2.289-7.202-2.083-9.905.619a7.504 7.504 0 000 10.607l9.192 9.192a1 1 0 001.415 0l9.192-9.192a7.504 7.504 0 000-10.607c-2.69-2.69-6.951-2.88-9.894-.619zM16 8.904c.438-.008.667-.258.703-.289 2.355-2.05 5.641-2.145 7.781-.005a5.503 5.503 0 010 7.778l-8.486 8.485-8.485-8.485a5.503 5.503 0 010-7.778 5.504 5.504 0 017.78.001c.187.187.442.293.707.293z"/></svg>