<svg xmlns="http://www.w3.org/2000/svg" viewBox="0 0 2000 2000"><path d="M1708.2 477.6c-2.7-4.3-7.1-7-12.6-6.2-.7.1-1.4.2-2.1.4-.3.1-.5.1-.8.1-156.8 60-313.6 120-470.4 179.9-250.1 95.7-500.2 191.3-750.3 287-57.6 22-115.3 44.1-172.9 66.1-10.7 4.1-16.1 21.1-3.5 27.1 96.3 46.4 192.6 92.9 289 139.4 53.7 115.4 107.3 230.8 161 346.1.6 3.4 2.2 6 4.7 7.7 2.5 2.5 5.5 3.4 8.7 3.3 3.9.6 8-.5 11.6-4.4l166.5-182.7c58.4 28.2 116.8 56.3 175.2 84.5 38.3 18.5 76.6 36.9 114.9 55.4 1.2.6 2.3.6 3.4.9 6.1 2.6 13.3 1.6 17-6.2 51.8-110.1 103.6-220.3 155.4-330.4 83.1-176.7 166.2-353.5 249.3-530.2 19.1-40.5 38.1-81.1 57.2-121.6 3.6-5.2 2.5-11.6-1.3-16.2zM425.5 1062c-28.4-13.7-56.7-27.4-85.1-41 145.7-55.7 291.4-111.5 437-167.2 250.1-95.7 500.2-191.3 750.3-287 7.8-3 15.5-5.9 23.3-8.9-77.7 47.5-155.4 94.9-233.1 142.3-198.2 121-396.4 242-594.6 363.1l-130.2 79.5c-55.9-27-111.7-53.9-167.6-80.8zm548.3-116.9l565.5-345.3c-94.1 79.4-188.2 158.9-282.3 238.3-102.1 86.2-204.2 172.4-306.3 258.5-36.9 31.2-73.9 62.3-110.8 93.5-19 16-40.7 31.1-58 49-5.9 6-7.6 11.1-8.9 19.7-4.1 26.9-6 54.4-8.9 81.4-4.3 39.8-8.7 79.5-13.1 119.3-45.7-98.2-91.4-196.5-137.1-294.7 120.1-73.2 240-146.5 359.9-219.7zm-194.2 525.1l11.1-101.4c3.3-30.1 6.6-60.1 9.9-90.2.1-.8.3-1.7.4-2.6 36 17.4 72.1 34.8 108.1 52.2-14.5 15.9-29 31.8-43.4 47.6-28.7 31.4-57.4 62.9-86.1 94.4zm148.9-165.6c-37-17.8-74-35.7-111-53.5 11.7-10.4 25.2-24.5 28.5-27.4 33.6-28.4 67.2-56.8 100.8-85.1 200-168.9 400.1-337.7 600.1-506.6 35.8-30.2 71.6-60.4 107.4-90.7-42 89.3-84 178.6-126 268-83.1 176.7-166.2 353.5-249.3 530.2-17.2 36.5-34.3 72.9-51.4 109.4-99.6-48.1-199.3-96.2-299.1-144.3z"/></svg>