<svg viewBox="0 0 32 32" xmlns="http://www.w3.org/2000/svg" fill-rule="evenodd" clip-rule="evenodd" stroke-linejoin="round" stroke-miterlimit="2"><path d="M4.96 27.999l.051.001.043-.004c.191-.024.957-.171.957-.996a9 9 0 019-9h1.988a9 9 0 019 9c0 .021 0 .041.002.061a.884.884 0 00.323.676.992.992 0 00.675.263s1-.057 1-1c0-6.075-4.925-11-11-11h-1.988c-6.075 0-11 4.925-11 11a1 1 0 00.949.999zM15.994 3.988a5.008 5.008 0 00-5.006 5.006A5.008 5.008 0 0015.994 14 5.008 5.008 0 0021 8.994a5.008 5.008 0 00-5.006-5.006zm0 2A3.007 3.007 0 0119 8.994 3.007 3.007 0 0115.994 12a3.007 3.007 0 01-3.006-3.006 3.007 3.007 0 013.006-3.006z"/></svg>