<?xml version="1.0" encoding="UTF-8"?>
<!DOCTYPE svg PUBLIC "-//W3C//DTD SVG 1.1//EN" "http://www.w3.org/Graphics/SVG/1.1/DTD/svg11.dtd">
<!-- Creator: CorelDRAW X6 -->
<svg xmlns="http://www.w3.org/2000/svg" xml:space="preserve" width="100%" height="100%" version="1.1" style="shape-rendering:geometricPrecision; text-rendering:geometricPrecision; image-rendering:optimizeQuality; fill-rule:evenodd; clip-rule:evenodd"
viewBox="0 0 500 500"
 xmlns:xlink="http://www.w3.org/1999/xlink">
 <defs>
  <style type="text/css">
   <![CDATA[
    .str0 {stroke:#446B00;stroke-width:5}
    .fil0 {fill:url(#id0)}
    .fil2 {fill:url(#id1)}
    .fil1 {fill:url(#id2)}
   ]]>
  </style>
  <linearGradient id="id0" gradientUnits="userSpaceOnUse" x1="210.355" y1="98.118" x2="210.355" y2="389.254">
   <stop offset="0" style="stop-color:#77BB00"/>
   <stop offset="1" style="stop-color:#4D7800"/>
  </linearGradient>
  <linearGradient id="id1" gradientUnits="userSpaceOnUse" x1="267.183" y1="112.65" x2="267.183" y2="236.462">
   <stop offset="0" style="stop-color:#66A000"/>
   <stop offset="1" style="stop-color:#90C72E"/>
  </linearGradient>
  <linearGradient id="id2" gradientUnits="userSpaceOnUse" x1="192.093" y1="436.283" x2="192.093" y2="238.921">
   <stop offset="0" style="stop-color:#558600"/>
   <stop offset="1" style="stop-color:#83C117"/>
  </linearGradient>
 </defs>
 <g id="Layer_x0020_1">
  <metadata id="CorelCorpID_0Corel-Layer"/>
  <polygon class="fil0 str0" points="106,156 203,254 387,70 479,162 210,430 21,241 "/>
  <polygon class="fil1" points="104,176 203,275 387,91 458,162 210,409 41,239 "/>
  <path class="fil2" d="M104 176l74 74c-37,-9 -71,-25 -101,-46l27 -28zm117 81l166 -166 71 71 -54 53c-45,27 -98,43 -155,43 -9,0 -19,0 -28,-1z"/>
 </g>
</svg>
