<svg xmlns="http://www.w3.org/2000/svg" viewBox="0 0 500 500" shape-rendering="geometricPrecision" text-rendering="geometricPrecision" image-rendering="optimizeQuality" fill-rule="evenodd" clip-rule="evenodd"><defs><linearGradient id="a" gradientUnits="userSpaceOnUse" x1="210.355" y1="98.118" x2="210.355" y2="389.254"><stop offset="0" stop-color="#7b0"/><stop offset="1" stop-color="#4d7800"/></linearGradient><linearGradient id="c" gradientUnits="userSpaceOnUse" x1="267.183" y1="112.65" x2="267.183" y2="236.462"><stop offset="0" stop-color="#66a000"/><stop offset="1" stop-color="#90c72e"/></linearGradient><linearGradient id="b" gradientUnits="userSpaceOnUse" x1="192.093" y1="436.283" x2="192.093" y2="238.921"><stop offset="0" stop-color="#558600"/><stop offset="1" stop-color="#83c117"/></linearGradient></defs><path fill="url(#a)" stroke="#446b00" stroke-width="5" d="M106 156l97 98L387 70l92 92-269 268L21 241z"/><path fill="url(#b)" d="M104 176l99 99L387 91l71 71-248 247L41 239z"/><path d="M104 176l74 74c-37-9-71-25-101-46l27-28zm117 81L387 91l71 71-54 53c-45 27-98 43-155 43-9 0-19 0-28-1z" fill="url(#c)"/></svg>