<svg viewBox="0 0 64 64" xmlns="http://www.w3.org/2000/svg"><path d="M26.229 47.985c-1.466 0-3.006-.21-4.658-.625-2.694-.678-6.767-1.702-6.399-6.729.031-.427.056-.829.079-1.226.067-1.114.131-2.167.33-3.584a1 1 0 111.981.277c-.188 1.339-.249 2.354-.314 3.428-.024.404-.049.815-.081 1.251-.209 2.866 1.341 3.749 4.894 4.643 4.398 1.104 7.751.616 11.202-1.636l.125-.081c1.636-1.067 3.327-2.172 4.772-3.438 1.756-1.537 3.553-3.227 4.804-5.155 1.635-2.521 3.867-5.963 3.889-8.921.016-2.26-1.113-7.138-2.696-7.871-1.138-.529-4.072-.261-5.822-.101-.422.039-.804.073-1.126.096-.573.04-1.028-.376-1.067-.927s.376-1.029.927-1.067c.311-.022.679-.056 1.085-.093 2.202-.202 5.218-.478 6.846.277 2.972 1.378 3.866 7.96 3.854 9.699-.025 3.542-2.442 7.269-4.206 9.988-1.389 2.141-3.305 3.946-5.169 5.579-1.552 1.358-3.303 2.502-4.997 3.607l-.124.081c-2.604 1.7-5.219 2.528-8.129 2.528z"/><path d="M31.186 39.221c-.897 0-2.066-.312-3.207-1.528-1.673-1.783-1.824-1.771-4.409-1.534a71.174 71.174 0 01-3.043.193c-1.255.062-2.553.126-3.795.275a1 1 0 01-.238-1.986c1.312-.157 2.646-.224 3.935-.287a70.53 70.53 0 002.959-.188c3.109-.284 3.898-.138 6.051 2.159.636.678 1.286.969 1.979.881 1.613-.196 3.288-2.234 4.23-3.919.454-.811 1.86-3.573.922-5.112-.294-.48-.725-.719-1.223-.995-.811-.449-1.921-1.063-2.022-2.825-.13-2.23 2.919-7.491 2.95-7.544a1 1 0 111.724 1.014c-1.132 1.928-2.738 5.385-2.679 6.415.037.633.253.779.995 1.191.62.343 1.391.771 1.961 1.702 1.411 2.313.052 5.46-.884 7.131-.596 1.064-2.77 4.566-5.733 4.928a3.888 3.888 0 01-.473.029z"/><path d="M37.817 28.566a1 1 0 01-.824-1.565c1.675-2.449 3.68-7.892 4.167-9.676a1 1 0 011.93.528c-.473 1.731-2.557 7.515-4.446 10.277a.998.998 0 01-.827.436zM16.229 42.494a1 1 0 01-.056-1.998c2.175-.125 10.66-2.393 12.787-3.418a1 1 0 11.869 1.801c-2.185 1.054-10.92 3.464-13.542 3.613a1.05 1.05 0 01-.058.002zm8.602-14.609a1 1 0 01-.973-1.233c.051-.211.082-.433.114-.654.049-.331.099-.673.198-1.019.656-2.305 1.931-3.873 3.787-4.657a1 1 0 01.78 1.842c-1.271.537-2.161 1.67-2.644 3.364-.069.242-.104.501-.142.76-.042.281-.084.563-.148.831a1.002 1.002 0 01-.972.766zm-5.498-.709a1 1 0 01-.998-.965c-.025-.709-.038-1.772.143-2.804.542-3.09 2.587-5.297 6.253-6.747a1 1 0 01.736 1.86c-3.007 1.189-4.602 2.853-5.019 5.233-.148.846-.137 1.768-.115 2.388a.999.999 0 01-1 1.035z"/></svg>